<?xml version="1.0" encoding="utf-8"?>
<!-- Generator: Adobe Illustrator 16.0.0, SVG Export Plug-In . SVG Version: 6.00 Build 0)  -->
<!DOCTYPE svg PUBLIC "-//W3C//DTD SVG 1.1//EN" "http://www.w3.org/Graphics/SVG/1.1/DTD/svg11.dtd">
<svg version="1.1" id="Layer_1" xmlns="http://www.w3.org/2000/svg" xmlns:xlink="http://www.w3.org/1999/xlink" x="0px" y="0px"
	 width="577.84px" height="716.256px" viewBox="0 0 577.84 716.256" enable-background="new 0 0 577.84 716.256"
	 xml:space="preserve">
<polygon fill="#7777E3" points="91.559,574.112 91.559,574.111 94.318,577.075 97.789,530.258 98.935,530.188 154.81,526.641 
	157.943,510.445 158.419,495.364 162.806,488.848 156.322,482.564 106.539,482.804 106.518,483.16 105.44,482.809 104.535,482.814 
	104.539,482.75 69.146,471.091 65.551,518.977 56.308,515.729 56.308,518.332 47.292,509.536 49.673,493.039 40.54,495.257 
	36.956,476.13 49.173,470.333 49.199,467.88 49.268,467.741 42.332,458.801 40.847,463.144 17.335,437.3 16.547,444.207 
	9.185,464.516 11.025,477.27 16.093,488.071 23.014,500.021 15.561,505.203 13.499,502.389 10.63,522.847 26.394,537.366 
	27.011,532.4 46.42,549.941 48.661,534.504 44.706,523.799 "/>
<polygon fill="#7777E3" points="215.811,86.736 212.076,95.401 211.95,98.662 286.238,171.333 300.438,117.482 315.379,102.082 
	317.672,102.318 318.327,101.279 320.812,101.701 327.366,94.596 310.917,77.745 315.138,61.404 264.941,11.773 253.271,53.28 
	231.868,43.878 231.828,50.03 228.531,57.407 227.559,62.873 222.568,71.218 221.353,71.098 216.256,79.914 "/>
<polygon fill="#7777E3" points="197.306,668.125 201.167,662.55 197.461,655.768 200.007,651.706 204.204,629.336 209.771,619.084 
	204.792,617.673 212.625,597.586 220.137,598.418 220.05,597.396 216.07,588.403 210.654,588.403 204.661,578.746 199.188,575.667 
	199.188,567.275 195.782,562.01 192.669,556.411 183.94,552.531 178.558,543.86 154.767,539.507 154.143,535.282 149.621,531.417 
	149.141,529.133 99.654,532.149 95.974,581.788 92.365,577.912 75.689,626.321 92.665,645.117 82.946,671.149 115.013,668.619 
	121.539,647.056 150.501,671.758 153.762,666.532 199.381,670.66 199.691,670.066 "/>
<polygon fill="#7777E3" points="47.544,195.936 57.94,208.87 56.527,213.594 57.366,214.826 56.978,219.034 92.744,256.107 
	98.488,239.934 98.472,239.917 98.698,239.343 99.237,237.826 99.278,237.869 101.562,232.062 90.936,220.812 112.828,195.507 
	101.601,185.362 118.241,165.433 134.437,88.597 84.576,34.001 67.496,110.693 66.002,109.565 66.002,112.219 57.853,104.605 
	56.903,108.972 47.128,99.855 41.149,115.068 43.97,125.431 41.274,127.281 39.405,127.281 36.089,129.246 38.213,130.723 
	29.704,140.084 26.729,152.218 52.349,179.406 "/>
<polygon fill="#7777E3" points="217.987,176.683 222.21,166.216 227.522,153.053 224.6,144.625 239.919,128.82 209.917,99.472 
	210.092,94.952 213.837,86.261 214.29,79.317 219.356,70.556 193.711,60.772 195.467,54.628 171.111,49.249 172,45.694 
	151.344,41.885 147.679,54.446 132.74,39.339 136.182,28.712 122.614,14.868 93.811,40.807 186.169,142.012 "/>
<polygon fill="#7777E3" points="227.688,548.657 208.11,529.844 207.018,529.559 203.118,528.216 192.385,544.167 177.496,529.462 
	180.119,542.582 185.315,550.953 194.093,554.854 197.496,560.982 201.188,566.685 201.188,574.498 206.089,577.255 
	211.766,586.403 217.372,586.403 222.015,596.893 222.336,600.674 213.93,599.743 207.455,616.349 212.721,617.842 206.111,630.014 
	201.902,652.446 199.778,655.836 203.514,662.673 200.004,667.743 202.22,669.544 201.591,670.749 203.981,670.795 205.692,673.618 
	205.112,677.374 201.048,683.318 201.949,693.211 199.59,699.864 238.389,705.137 242.169,685.018 259.845,687.422 261.646,677.896 
	269.58,664.753 287.375,680.686 292.228,672.874 301.647,668.575 312.34,668.125 321.167,669.077 332.377,672.15 333.648,669.909 
	355.032,673.835 363.029,619.489 262.36,516.031 "/>
<polygon fill="#7777E3" points="568.938,473.577 470.391,473.252 470.391,484.521 448.237,486.081 446.342,494.476 404.137,456.404 
	374.499,575.005 404.321,572.784 404.542,594.761 489.778,594.213 489.909,582.823 505.745,583.118 505.129,572.249 
	565.807,571.895 "/>
<polygon fill="#7777E3" points="366.434,465.102 379.991,430.76 346.055,399.796 308.222,495.435 298.956,485.028 267.24,518.047 
	363.5,617.104 371.938,577.201 371.887,577.205 372.221,575.87 372.756,573.726 393.299,491.524 "/>
<polygon fill="#7777E3" points="401.643,241.714 369.034,275.514 471.083,375.571 495.338,260.726 413.176,180.072 376.983,216.042 
	"/>
<polygon fill="#7777E3" points="192.073,541.048 202.316,525.825 203.06,526.082 208.91,527.987 209.121,528.042 209.143,528.062 
	209.144,528.062 227.702,545.896 262.421,513.226 263.097,513.92 265.832,516.626 299.01,482.083 307.556,491.679 344.486,398.325 
	254.857,309.117 248.141,324.688 248.06,324.791 248.059,324.792 243.944,329.99 238.955,336.292 236.543,346.044 223.676,332.552 
	204.61,350.945 204.609,350.945 204.151,350.462 160.489,304.581 153.925,317.098 154.349,331.092 150.119,340.268 149.667,345.264 
	149.491,345.484 143.906,353.083 132.852,378.76 131.154,405.115 122.16,427.402 122.16,434.028 109.447,434.992 106.661,480.8 
	157.129,480.56 165.399,488.577 160.399,496.002 159.922,510.746 156.483,528.521 156.48,528.54 155.723,528.587 151.153,528.982 
	151.438,530.339 156.012,534.249 156.537,537.798 177.651,541.661 174.894,526.653 174.254,523.451 174.317,523.513 "/>
<polygon fill="#7777E3" points="265.984,195.406 229.917,169.042 223.667,183.642 207.002,246.911 156.146,297.11 160.027,301.153 
	160.031,301.147 161.007,302.174 161.488,302.675 161.486,302.678 204.671,348.107 223.735,329.716 235.476,342.027 
	237.117,335.391 246.409,323.654 253.327,307.596 253.326,307.596 253.721,306.68 254.178,305.619 254.179,305.62 262.327,286.731 
	262.576,274.99 262.691,274.913 262.696,274.688 272.694,268.034 271.544,257.396 274.698,247.033 274.698,240.681 255.83,220.7 "/>
<polygon fill="#7777E3" points="393.862,489.272 403.004,452.689 445.143,490.701 470.586,377.887 401.032,310.152 355.051,355.403 
	361.896,362.083 337.833,383.913 344.965,392.479 344.271,394.853 381.769,429.674 382.357,430.211 368.779,464.604 "/>
<polygon fill="#7777E3" points="100.942,239.602 154.414,295.305 154.761,295.667 205.208,245.872 221.609,183.604 218.613,180.475 
	218.598,180.514 217.529,179.343 217.096,178.891 217.103,178.875 184.556,143.211 136.099,90.41 120.095,166.332 104.368,185.167 
	115.621,195.335 93.631,220.754 103.888,231.612 103.659,232.193 "/>
<polygon fill="#7777E3" points="319.308,103.474 318.702,104.435 316.139,104.17 302.239,118.499 287.295,175.166 257.932,146.441 
	241.349,130.219 226.893,145.132 229.657,153.107 219.485,178.315 222.408,181.5 229.067,165.943 268.42,194.708 258.163,220.258 
	275.115,238.209 277.889,225.097 277.96,225.033 278.011,224.795 286.477,217.127 287.561,208.914 287.665,208.741 287.682,208.612 
	292.333,200.864 327.695,235.51 367.601,274.118 398.868,241.711 374.179,216.01 411.754,178.665 328.774,96.019 321.547,103.854 
	"/>
<polygon fill="#7777E3" points="264.438,286.887 264.318,287.165 264.317,287.188 264.24,287.368 255.71,307.142 342.649,393.274 
	342.747,392.94 335.068,383.719 358.978,362.029 352.194,355.409 399.6,308.754 326.229,236.873 292.625,204.361 289.594,209.414 
	288.455,218.034 288.364,218.116 288.335,218.336 279.783,226.081 276.82,240.086 276.776,247.171 273.697,257.285 274.957,268.931 
	274.813,269.026 274.836,269.233 264.669,275.999 "/>
<polygon fill="#7777E3" points="51.617,467.504 51.194,468.359 51.16,471.605 39.206,477.277 42.117,492.816 52.076,490.396 
	49.417,508.815 54.308,513.585 54.308,512.906 63.752,516.225 67.188,470.447 52.547,465.625 "/>
<polygon fill="#7777E3" points="107.556,433.128 120.16,432.174 120.16,427.013 129.179,404.666 130.878,378.288 130.945,378.131 
	142.678,350.776 147.729,344.483 148.158,339.744 152.335,330.682 151.911,316.634 159.033,303.051 154.039,297.803 
	121.697,264.111 100.176,241.692 94.099,258.27 77.879,303.937 61.138,288.11 54.317,299.27 45.427,310.204 37.461,335.016 
	34.795,346.965 33.42,358.958 33.444,370.269 50.71,388.387 53.014,463.669 104.678,480.458 "/>
<g>
	<path fill="#FFFFFF" d="M183.632,429.849h1.119c0.008,0.379,0.181,0.718,0.52,1.017c0.338,0.299,0.758,0.448,1.259,0.448
		c0.495,0,0.884-0.117,1.167-0.352s0.449-0.522,0.5-0.862c0.004-0.039,0.006-0.079,0.006-0.118c0-0.168-0.029-0.322-0.088-0.463
		c-0.07-0.172-0.177-0.314-0.319-0.428c-0.142-0.113-0.295-0.207-0.459-0.281s-0.346-0.135-0.544-0.182l-1.064-0.269
		c-1.346-0.34-2.019-1.058-2.019-2.155c0-0.449,0.125-0.854,0.375-1.213c0.25-0.359,0.579-0.635,0.985-0.826
		s0.845-0.287,1.314-0.287c0.771,0,1.408,0.221,1.912,0.662s0.757,1.027,0.757,1.758h-1.113c0-0.406-0.147-0.733-0.44-0.981
		s-0.669-0.372-1.127-0.372c-0.419,0-0.782,0.117-1.089,0.354c-0.308,0.235-0.461,0.539-0.461,0.912c0,0.582,0.39,0.969,1.169,1.164
		l1.079,0.26c0.794,0.205,1.384,0.523,1.769,0.955c0.318,0.357,0.478,0.784,0.478,1.277c0,0.109-0.008,0.221-0.023,0.334
		c-0.078,0.621-0.363,1.136-0.854,1.544s-1.127,0.612-1.909,0.612c-0.411,0-0.799-0.07-1.165-0.211s-0.674-0.326-0.924-0.557
		c-0.25-0.23-0.448-0.498-0.593-0.803C183.704,430.481,183.632,430.169,183.632,429.849z"/>
	<path fill="#FFFFFF" d="M190.2,425.015v-1.043h6.164v1.043h-2.525v7.225h-1.113v-7.225H190.2z"/>
	<path fill="#FFFFFF" d="M197.524,429.96v-1.043h4.178v1.043H197.524z"/>
	<path fill="#FFFFFF" d="M203.659,432.239v-8.268h1.113v3.65h3.996v-3.65h1.113v8.268h-1.113v-3.598h-3.996v3.598H203.659z"/>
	<path fill="#FFFFFF" d="M211.077,423.972h1.336l2.376,3.346l2.405-3.346h1.342l-3.17,4.465v3.803h-1.154v-3.803L211.077,423.972z"
		/>
	<path fill="#FFFFFF" d="M218.688,432.239l3.141-8.268h1.201l3.129,8.268h-1.172l-0.803-2.086h-3.51l-0.803,2.086H218.688z
		 M221.062,429.134h2.736l-1.365-3.674L221.062,429.134z"/>
	<path fill="#FFFFFF" d="M226.874,428.126c0-0.773,0.185-1.485,0.554-2.136s0.875-1.165,1.518-1.544s1.347-0.568,2.112-0.568
		c0.625,0,1.206,0.123,1.743,0.369s0.993,0.586,1.368,1.021l-0.844,0.7c-0.293-0.318-0.634-0.567-1.022-0.75
		c-0.389-0.182-0.804-0.273-1.245-0.273c-0.566,0-1.085,0.143-1.556,0.426c-0.471,0.285-0.841,0.67-1.11,1.156
		s-0.404,1.02-0.404,1.6c0,0.576,0.135,1.107,0.404,1.594s0.64,0.869,1.11,1.15c0.471,0.279,0.989,0.42,1.556,0.42
		c0.457,0,0.883-0.094,1.277-0.279s0.732-0.446,1.014-0.779l0.844,0.711c-0.371,0.443-0.828,0.789-1.371,1.039
		s-1.131,0.375-1.764,0.375c-0.574,0-1.12-0.111-1.638-0.334s-0.962-0.523-1.335-0.902c-0.372-0.379-0.667-0.829-0.885-1.351
		C226.983,429.248,226.874,428.7,226.874,428.126z"/>
	<path fill="#FFFFFF" d="M235.61,432.239v-8.268h1.113v8.268H235.61z"/>
	<path fill="#FFFFFF" d="M238.979,432.239v-8.268h1.102l3.732,6.182v-6.182h1.113v8.268h-1.066l-3.768-6.229v6.229H238.979z"/>
	<path fill="#FFFFFF" d="M246.368,425.015v-1.043h6.164v1.043h-2.525v7.225h-1.113v-7.225H246.368z"/>
	<path fill="#FFFFFF" d="M253.997,432.239v-8.268h1.113v3.65h3.996v-3.65h1.113v8.268h-1.113v-3.598h-3.996v3.598H253.997z"/>
	<path fill="#FFFFFF" d="M262.487,432.239v-8.268h4.893v1.043h-3.779v2.643h3.299v1.043h-3.299v2.496h3.902v1.043H262.487z"/>
</g>
<g>
	<path fill="#FFFFFF" d="M378.09,389.036h1.119c0.008,0.379,0.182,0.718,0.52,1.017c0.339,0.299,0.759,0.448,1.26,0.448
		c0.495,0,0.884-0.117,1.166-0.352c0.283-0.234,0.449-0.522,0.5-0.862c0.004-0.039,0.006-0.079,0.006-0.118
		c0-0.168-0.029-0.322-0.088-0.463c-0.07-0.172-0.176-0.314-0.318-0.428s-0.296-0.207-0.46-0.281s-0.346-0.135-0.544-0.182
		l-1.064-0.269c-1.346-0.34-2.02-1.058-2.02-2.155c0-0.449,0.125-0.854,0.376-1.213c0.25-0.359,0.579-0.635,0.985-0.826
		s0.845-0.287,1.314-0.287c0.77,0,1.407,0.221,1.912,0.662c0.504,0.441,0.756,1.027,0.756,1.758h-1.113
		c0-0.406-0.146-0.733-0.439-0.981c-0.294-0.248-0.67-0.372-1.127-0.372c-0.42,0-0.782,0.117-1.09,0.354
		c-0.307,0.235-0.461,0.539-0.461,0.912c0,0.582,0.391,0.969,1.17,1.164l1.078,0.26c0.794,0.205,1.384,0.523,1.77,0.955
		c0.318,0.357,0.477,0.784,0.477,1.277c0,0.109-0.008,0.221-0.023,0.334c-0.078,0.621-0.362,1.136-0.854,1.544
		c-0.49,0.408-1.127,0.612-1.908,0.612c-0.41,0-0.799-0.07-1.164-0.211c-0.366-0.141-0.674-0.326-0.924-0.557
		c-0.251-0.23-0.448-0.498-0.594-0.803C378.163,389.669,378.09,389.356,378.09,389.036z"/>
	<path fill="#FFFFFF" d="M384.659,384.202v-1.043h6.164v1.043h-2.525v7.225h-1.113v-7.225H384.659z"/>
	<path fill="#FFFFFF" d="M391.983,389.147v-1.043h4.178v1.043H391.983z"/>
	<path fill="#FFFFFF" d="M398.118,391.427v-8.268h1.113v7.225h3.369v1.043H398.118z"/>
	<path fill="#FFFFFF" d="M404.053,391.427v-8.268h1.113v8.268H404.053z"/>
	<path fill="#FFFFFF" d="M407.422,391.427v-8.268h3.121c0.691,0,1.24,0.193,1.643,0.579s0.604,0.905,0.604,1.56
		c0,0.386-0.084,0.734-0.252,1.045c-0.168,0.312-0.436,0.537-0.803,0.678c0.441,0.094,0.801,0.343,1.076,0.747
		s0.412,0.827,0.412,1.269c0,0.434-0.094,0.83-0.283,1.189s-0.471,0.649-0.844,0.87c-0.372,0.221-0.805,0.331-1.296,0.331H407.422z
		 M408.536,386.593h1.996c0.353,0,0.625-0.121,0.816-0.361c0.191-0.241,0.287-0.539,0.287-0.893c0-0.357-0.109-0.637-0.328-0.836
		c-0.219-0.201-0.517-0.301-0.893-0.301h-1.879V386.593z M408.536,390.384h2.213c0.392,0,0.709-0.135,0.954-0.404
		s0.366-0.588,0.366-0.955c0-0.359-0.127-0.69-0.381-0.993s-0.579-0.454-0.975-0.454h-2.178V390.384z"/>
	<path fill="#FFFFFF" d="M414.413,387.313c0-0.773,0.184-1.485,0.551-2.136s0.871-1.165,1.511-1.544s1.345-0.568,2.114-0.568
		s1.477,0.189,2.119,0.568s1.147,0.894,1.516,1.544c0.367,0.65,0.551,1.362,0.551,2.136c0,0.574-0.108,1.122-0.326,1.644
		s-0.512,0.972-0.881,1.351s-0.813,0.68-1.332,0.902c-0.52,0.223-1.068,0.334-1.646,0.334c-0.579,0-1.127-0.111-1.645-0.334
		c-0.517-0.223-0.959-0.523-1.328-0.902s-0.661-0.829-0.878-1.351C414.522,388.436,414.413,387.888,414.413,387.313z
		 M415.928,385.714c-0.268,0.486-0.402,1.02-0.402,1.6s0.135,1.112,0.402,1.597s0.637,0.866,1.105,1.147
		c0.469,0.279,0.987,0.42,1.555,0.42c0.57,0,1.092-0.141,1.562-0.42c0.471-0.281,0.841-0.663,1.108-1.147
		c0.269-0.484,0.401-1.017,0.401-1.597s-0.133-1.113-0.401-1.6c-0.268-0.486-0.638-0.871-1.108-1.156
		c-0.471-0.283-0.992-0.426-1.562-0.426c-0.567,0-1.086,0.143-1.555,0.426C416.565,384.843,416.196,385.228,415.928,385.714z"/>
	<path fill="#FFFFFF" d="M424.508,391.427v-8.268h1.113v8.268H424.508z"/>
	<path fill="#FFFFFF" d="M427.877,391.427v-8.268h3.173c0.417,0,0.788,0.073,1.112,0.22s0.58,0.344,0.767,0.592
		c0.188,0.248,0.329,0.522,0.425,0.823s0.143,0.619,0.143,0.955c0,0.316-0.041,0.613-0.123,0.895s-0.207,0.54-0.375,0.777
		c-0.168,0.238-0.395,0.434-0.678,0.588s-0.612,0.246-0.988,0.277l2.211,3.141h-1.354l-2.143-3.1h-1.057v3.1H427.877z
		 M428.991,387.284h1.973c0.242,0,0.456-0.043,0.64-0.129c0.185-0.086,0.327-0.203,0.432-0.352c0.104-0.148,0.181-0.312,0.231-0.489
		s0.076-0.366,0.076-0.565c0-0.27-0.041-0.517-0.126-0.741c-0.084-0.225-0.229-0.415-0.437-0.571
		c-0.208-0.156-0.465-0.234-0.77-0.234h-2.02V387.284z"/>
	<path fill="#FFFFFF" d="M435.301,391.427v-8.268h4.893v1.043h-3.779v2.643h3.299v1.043h-3.299v2.496h3.902v1.043H435.301z"/>
</g>
<g>
	<path fill="#FFFFFF" d="M433.184,528.192h1.119c0.008,0.379,0.182,0.718,0.52,1.017c0.339,0.299,0.759,0.448,1.26,0.448
		c0.495,0,0.884-0.117,1.166-0.352c0.283-0.234,0.449-0.522,0.5-0.862c0.004-0.039,0.006-0.079,0.006-0.118
		c0-0.168-0.029-0.322-0.088-0.463c-0.07-0.172-0.176-0.314-0.318-0.428s-0.296-0.207-0.46-0.281s-0.346-0.135-0.544-0.182
		l-1.064-0.269c-1.346-0.34-2.02-1.058-2.02-2.155c0-0.449,0.125-0.854,0.376-1.213c0.25-0.359,0.579-0.635,0.985-0.826
		s0.845-0.287,1.314-0.287c0.77,0,1.407,0.221,1.912,0.662c0.504,0.441,0.756,1.027,0.756,1.758h-1.113
		c0-0.406-0.146-0.733-0.439-0.981c-0.294-0.248-0.67-0.372-1.127-0.372c-0.42,0-0.782,0.117-1.09,0.354
		c-0.307,0.235-0.461,0.539-0.461,0.912c0,0.582,0.391,0.969,1.17,1.164l1.078,0.26c0.794,0.205,1.384,0.523,1.77,0.955
		c0.318,0.357,0.477,0.784,0.477,1.277c0,0.109-0.008,0.221-0.023,0.334c-0.078,0.621-0.362,1.136-0.854,1.544
		c-0.49,0.408-1.127,0.612-1.908,0.612c-0.41,0-0.799-0.07-1.164-0.211c-0.366-0.141-0.674-0.326-0.924-0.557
		c-0.251-0.23-0.448-0.498-0.594-0.803C433.256,528.825,433.184,528.513,433.184,528.192z"/>
	<path fill="#FFFFFF" d="M439.752,523.358v-1.043h6.164v1.043h-2.525v7.225h-1.113v-7.225H439.752z"/>
	<path fill="#FFFFFF" d="M447.077,528.304v-1.043h4.178v1.043H447.077z"/>
	<path fill="#FFFFFF" d="M452.415,522.315h1.154l1.873,6.391l1.877-6.391h1.154l-2.484,8.268h-1.066L452.415,522.315z"/>
	<path fill="#FFFFFF" d="M458.954,530.583l3.141-8.268h1.201l3.129,8.268h-1.172l-0.803-2.086h-3.51l-0.803,2.086H458.954z
		 M461.327,527.478h2.736l-1.365-3.674L461.327,527.478z"/>
	<path fill="#FFFFFF" d="M467.684,530.583v-8.268h1.113v7.225h3.369v1.043H467.684z"/>
	<path fill="#FFFFFF" d="M473.62,522.315h4.893v1.043h-3.779v2.643h3.299v1.043h-3.299v2.496h3.902v1.043h-5.016V522.315z
		 M476.11,521.272l1.43-1.852h-1.307l-1.166,1.852H476.11z"/>
	<path fill="#FFFFFF" d="M480.399,530.583v-8.268h3.173c0.417,0,0.788,0.073,1.112,0.22s0.58,0.344,0.767,0.592
		c0.188,0.248,0.329,0.522,0.425,0.823s0.143,0.619,0.143,0.955c0,0.316-0.041,0.613-0.123,0.895s-0.207,0.54-0.375,0.777
		c-0.168,0.238-0.395,0.434-0.678,0.588s-0.612,0.246-0.988,0.277l2.211,3.141h-1.354l-2.143-3.1h-1.057v3.1H480.399z
		 M481.512,526.44h1.973c0.242,0,0.456-0.043,0.64-0.129c0.185-0.086,0.327-0.203,0.432-0.352c0.104-0.148,0.181-0.312,0.231-0.489
		s0.076-0.366,0.076-0.565c0-0.27-0.041-0.517-0.126-0.741c-0.084-0.225-0.229-0.415-0.437-0.571
		c-0.208-0.156-0.465-0.234-0.77-0.234h-2.02V526.44z"/>
	<path fill="#FFFFFF" d="M487.823,530.583v-8.268h1.113v8.268H487.823z"/>
	<path fill="#FFFFFF" d="M491.192,530.583v-8.268h4.893v1.043h-3.779v2.643h3.299v1.043h-3.299v2.496h3.902v1.043H491.192z"/>
	<path fill="#FFFFFF" d="M497.971,530.583v-8.268h1.102l3.732,6.182v-6.182h1.113v8.268h-1.066l-3.768-6.229v6.229H497.971z"/>
	<path fill="#FFFFFF" d="M505.87,528.304v-1.043h4.178v1.043H505.87z"/>
	<path fill="#FFFFFF" d="M439.665,542.583v-8.268h3.199c0.574,0,1.098,0.106,1.57,0.319s0.865,0.506,1.176,0.879
		s0.551,0.812,0.721,1.318s0.254,1.052,0.254,1.638s-0.084,1.129-0.254,1.629s-0.412,0.935-0.725,1.304s-0.703,0.658-1.174,0.867
		s-0.994,0.313-1.568,0.313H439.665z M440.778,541.54h2.086c0.418,0,0.795-0.078,1.129-0.234s0.607-0.373,0.82-0.65
		s0.375-0.602,0.488-0.973s0.17-0.775,0.17-1.213c0-0.59-0.096-1.116-0.287-1.579s-0.486-0.834-0.887-1.113
		s-0.879-0.419-1.434-0.419h-2.086V541.54z"/>
	<path fill="#FFFFFF" d="M448.348,542.583v-8.268h4.893v1.043h-3.779v2.643h3.299v1.043h-3.299v2.496h3.902v1.043H448.348z"/>
	<path fill="#FFFFFF" d="M454.823,540.304v-1.043H459v1.043H454.823z"/>
	<path fill="#FFFFFF" d="M460.489,542.583l1.012-8.268h1.027l2.91,6.07l2.916-6.07h1.027l1.01,8.268h-1.113l-0.756-6.218
		l-2.581,5.304h-0.983l-2.6-5.301l-0.756,6.215H460.489z"/>
	<path fill="#FFFFFF" d="M472.161,542.583v-8.268h1.113v8.268H472.161z"/>
	<path fill="#FFFFFF" d="M475.53,542.583v-8.268h1.113v7.225h3.369v1.043H475.53z"/>
	<path fill="#FFFFFF" d="M480.651,535.358v-1.043h6.164v1.043h-2.525v7.225h-1.113v-7.225H480.651z"/>
	<path fill="#FFFFFF" d="M487.735,538.47c0-0.773,0.184-1.485,0.551-2.136s0.871-1.165,1.511-1.544s1.345-0.568,2.114-0.568
		s1.477,0.189,2.119,0.568s1.147,0.894,1.516,1.544c0.367,0.65,0.551,1.362,0.551,2.136c0,0.574-0.108,1.122-0.326,1.644
		s-0.512,0.972-0.881,1.351s-0.813,0.68-1.332,0.902c-0.52,0.223-1.068,0.334-1.646,0.334c-0.579,0-1.127-0.111-1.645-0.334
		c-0.517-0.223-0.959-0.523-1.328-0.902s-0.661-0.829-0.878-1.351C487.844,539.592,487.735,539.044,487.735,538.47z M489.25,536.87
		c-0.268,0.486-0.402,1.02-0.402,1.6s0.135,1.112,0.402,1.597s0.637,0.866,1.105,1.147c0.469,0.279,0.987,0.42,1.555,0.42
		c0.57,0,1.092-0.141,1.562-0.42c0.471-0.281,0.841-0.663,1.108-1.147c0.269-0.484,0.401-1.017,0.401-1.597s-0.133-1.113-0.401-1.6
		c-0.268-0.486-0.638-0.871-1.108-1.156c-0.471-0.283-0.992-0.426-1.562-0.426c-0.567,0-1.086,0.143-1.555,0.426
		C489.887,535.999,489.518,536.384,489.25,536.87z"/>
	<path fill="#FFFFFF" d="M497.831,542.583v-8.268h1.102l3.732,6.182v-6.182h1.113v8.268h-1.066l-3.768-6.229v6.229H497.831z"/>
</g>
<g>
	<path fill="#FFFFFF" d="M257.851,614.713h1.119c0.008,0.379,0.181,0.718,0.52,1.017c0.338,0.299,0.758,0.448,1.259,0.448
		c0.495,0,0.884-0.117,1.167-0.353c0.283-0.234,0.449-0.521,0.5-0.861c0.004-0.039,0.006-0.078,0.006-0.117
		c0-0.168-0.029-0.322-0.088-0.464c-0.07-0.172-0.177-0.314-0.319-0.428c-0.142-0.114-0.295-0.208-0.459-0.282
		s-0.346-0.135-0.544-0.182l-1.064-0.268c-1.346-0.34-2.019-1.059-2.019-2.155c0-0.449,0.125-0.854,0.375-1.213
		c0.25-0.359,0.579-0.635,0.985-0.826s0.845-0.287,1.314-0.287c0.771,0,1.408,0.221,1.912,0.662s0.757,1.027,0.757,1.758h-1.113
		c0-0.406-0.147-0.733-0.44-0.981s-0.669-0.372-1.127-0.372c-0.419,0-0.782,0.118-1.089,0.354c-0.308,0.235-0.461,0.54-0.461,0.911
		c0,0.582,0.39,0.971,1.169,1.164l1.079,0.262c0.794,0.204,1.384,0.521,1.769,0.953c0.318,0.359,0.478,0.785,0.478,1.278
		c0,0.109-0.008,0.221-0.023,0.334c-0.078,0.621-0.363,1.136-0.854,1.544s-1.127,0.612-1.909,0.612c-0.411,0-0.799-0.07-1.165-0.211
		s-0.674-0.326-0.924-0.557c-0.25-0.23-0.448-0.498-0.593-0.803C257.923,615.346,257.851,615.033,257.851,614.713z"/>
	<path fill="#FFFFFF" d="M264.419,609.879v-1.043h6.164v1.043h-2.525v7.225h-1.113v-7.225H264.419z"/>
	<path fill="#FFFFFF" d="M271.743,614.824v-1.043h4.178v1.043H271.743z"/>
	<path fill="#FFFFFF" d="M277.878,617.104v-8.268h3.292c0.421,0,0.793,0.073,1.117,0.22c0.323,0.146,0.58,0.344,0.769,0.592
		s0.332,0.522,0.427,0.823c0.095,0.301,0.143,0.619,0.143,0.955c0,0.339-0.048,0.657-0.144,0.956
		c-0.096,0.298-0.238,0.57-0.428,0.818s-0.446,0.443-0.771,0.588c-0.324,0.144-0.697,0.216-1.119,0.216h-2.174v3.1H277.878z
		 M278.991,612.961h2.101c0.321,0,0.592-0.076,0.813-0.229s0.377-0.341,0.469-0.565c0.092-0.225,0.138-0.472,0.138-0.741
		c0-0.266-0.044-0.512-0.132-0.738c-0.088-0.227-0.237-0.418-0.449-0.574s-0.47-0.234-0.775-0.234h-2.166V612.961z"/>
	<path fill="#FFFFFF" d="M285.149,617.104v-8.268h1.113v8.268H285.149z"/>
	<path fill="#FFFFFF" d="M288.519,617.104v-8.268h4.892v1.043h-3.779v2.643h3.299v1.043h-3.299v2.496h3.902v1.043H288.519z"/>
</g>
<g>
	<path fill="#FFFFFF" d="M114.272,603.055h1.119c0.008,0.379,0.181,0.718,0.52,1.017c0.338,0.299,0.758,0.448,1.259,0.448
		c0.495,0,0.884-0.117,1.167-0.353c0.283-0.234,0.449-0.521,0.5-0.861c0.004-0.039,0.006-0.078,0.006-0.117
		c0-0.168-0.029-0.322-0.088-0.464c-0.07-0.172-0.177-0.314-0.319-0.428c-0.142-0.114-0.295-0.208-0.459-0.282
		s-0.346-0.135-0.544-0.182l-1.064-0.268c-1.346-0.34-2.019-1.059-2.019-2.155c0-0.449,0.125-0.854,0.375-1.213
		c0.25-0.359,0.579-0.635,0.985-0.826s0.845-0.287,1.314-0.287c0.771,0,1.408,0.221,1.912,0.662s0.757,1.027,0.757,1.758h-1.113
		c0-0.406-0.147-0.733-0.44-0.981s-0.669-0.372-1.127-0.372c-0.419,0-0.782,0.118-1.089,0.354c-0.308,0.235-0.461,0.54-0.461,0.911
		c0,0.582,0.39,0.971,1.169,1.164l1.079,0.262c0.794,0.204,1.384,0.521,1.769,0.953c0.318,0.359,0.478,0.785,0.478,1.278
		c0,0.109-0.008,0.221-0.023,0.334c-0.078,0.621-0.363,1.136-0.854,1.544s-1.127,0.612-1.909,0.612c-0.411,0-0.799-0.07-1.165-0.211
		s-0.674-0.326-0.924-0.557c-0.25-0.23-0.448-0.498-0.593-0.803C114.344,603.688,114.272,603.375,114.272,603.055z"/>
	<path fill="#FFFFFF" d="M120.84,598.221v-1.043h6.164v1.043h-2.525v7.225h-1.113v-7.225H120.84z"/>
	<path fill="#FFFFFF" d="M128.165,603.166v-1.043h4.178v1.043H128.165z"/>
	<path fill="#FFFFFF" d="M134.299,605.445v-8.268h3.199c0.574,0,1.098,0.106,1.57,0.319s0.864,0.506,1.175,0.879
		s0.551,0.812,0.721,1.318s0.255,1.052,0.255,1.638s-0.085,1.129-0.255,1.629s-0.411,0.935-0.724,1.304s-0.704,0.658-1.175,0.867
		s-0.993,0.313-1.567,0.313H134.299z M135.413,604.402h2.086c0.418,0,0.794-0.078,1.128-0.234s0.607-0.373,0.82-0.65
		s0.376-0.602,0.489-0.973s0.17-0.775,0.17-1.213c0-0.59-0.096-1.116-0.287-1.579s-0.487-0.834-0.888-1.113
		s-0.878-0.419-1.433-0.419h-2.086V604.402z"/>
	<path fill="#FFFFFF" d="M141.987,605.445l3.141-8.268h1.201l3.129,8.268h-1.172l-0.803-2.086h-3.51l-0.803,2.086H141.987z
		 M144.36,602.34h2.736l-1.365-3.674L144.36,602.34z"/>
	<path fill="#FFFFFF" d="M150.249,605.445l1.011-8.268h1.027l2.91,6.07l2.916-6.07h1.027l1.011,8.268h-1.113l-0.756-6.218
		l-2.582,5.304h-0.983l-2.6-5.302l-0.755,6.216H150.249z"/>
	<path fill="#FFFFFF" d="M160.924,605.445l3.141-8.268h1.201l3.129,8.268h-1.172l-0.803-2.086h-3.51l-0.803,2.086H160.924z
		 M163.297,602.34h2.736l-1.365-3.674L163.297,602.34z"/>
	<path fill="#FFFFFF" d="M169.145,603.055h1.119c0.008,0.379,0.181,0.718,0.52,1.017c0.338,0.299,0.758,0.448,1.259,0.448
		c0.495,0,0.884-0.117,1.167-0.353c0.283-0.234,0.449-0.521,0.5-0.861c0.004-0.039,0.006-0.078,0.006-0.117
		c0-0.168-0.029-0.322-0.088-0.464c-0.07-0.172-0.177-0.314-0.319-0.428c-0.142-0.114-0.295-0.208-0.459-0.282
		s-0.346-0.135-0.544-0.182l-1.064-0.268c-1.346-0.34-2.019-1.059-2.019-2.155c0-0.449,0.125-0.854,0.375-1.213
		c0.25-0.359,0.579-0.635,0.985-0.826s0.845-0.287,1.314-0.287c0.771,0,1.408,0.221,1.912,0.662s0.757,1.027,0.757,1.758h-1.113
		c0-0.406-0.147-0.733-0.44-0.981s-0.669-0.372-1.127-0.372c-0.419,0-0.782,0.118-1.089,0.354c-0.308,0.235-0.461,0.54-0.461,0.911
		c0,0.582,0.39,0.971,1.169,1.164l1.079,0.262c0.794,0.204,1.384,0.521,1.769,0.953c0.318,0.359,0.478,0.785,0.478,1.278
		c0,0.109-0.008,0.221-0.023,0.334c-0.078,0.621-0.363,1.136-0.854,1.544s-1.127,0.612-1.909,0.612c-0.411,0-0.799-0.07-1.165-0.211
		s-0.674-0.326-0.924-0.557c-0.25-0.23-0.448-0.498-0.593-0.803C169.217,603.688,169.145,603.375,169.145,603.055z"/>
	<path fill="#FFFFFF" d="M176.528,605.445v-8.268h4.893v1.043h-3.779v2.643h3.299v1.043h-3.299v2.496h3.902v1.043H176.528z"/>
</g>
<g>
	<path fill="#FFFFFF" d="M294.917,304.19h1.119c0.008,0.379,0.181,0.718,0.52,1.017s0.759,0.448,1.259,0.448
		c0.496,0,0.885-0.117,1.167-0.352c0.282-0.234,0.449-0.522,0.5-0.862c0.004-0.039,0.006-0.079,0.006-0.118
		c0-0.168-0.029-0.322-0.088-0.463c-0.07-0.172-0.177-0.314-0.319-0.428c-0.143-0.114-0.295-0.208-0.459-0.282
		s-0.346-0.135-0.545-0.182l-1.064-0.268c-1.346-0.34-2.019-1.058-2.019-2.155c0-0.449,0.125-0.854,0.376-1.213
		c0.25-0.359,0.578-0.635,0.984-0.826c0.407-0.191,0.846-0.287,1.314-0.287c0.771,0,1.408,0.221,1.912,0.662
		s0.757,1.027,0.757,1.758h-1.113c0-0.406-0.147-0.733-0.44-0.981s-0.669-0.372-1.127-0.372c-0.419,0-0.781,0.118-1.089,0.354
		c-0.308,0.235-0.461,0.54-0.461,0.912c0,0.582,0.39,0.97,1.169,1.164l1.078,0.261c0.795,0.205,1.385,0.522,1.77,0.954
		c0.318,0.358,0.478,0.785,0.478,1.278c0,0.109-0.008,0.221-0.023,0.334c-0.078,0.621-0.362,1.136-0.854,1.544
		s-1.127,0.612-1.909,0.612c-0.41,0-0.799-0.07-1.164-0.211s-0.674-0.326-0.924-0.557s-0.447-0.498-0.593-0.803
		C294.99,304.823,294.917,304.511,294.917,304.19z"/>
	<path fill="#FFFFFF" d="M301.486,299.356v-1.043h6.164v1.043h-2.525v7.225h-1.113v-7.225H301.486z"/>
	<path fill="#FFFFFF" d="M308.81,304.302v-1.043h4.178v1.043H308.81z"/>
	<path fill="#FFFFFF" d="M314.435,304.19h1.119c0.008,0.379,0.181,0.718,0.52,1.017s0.759,0.448,1.259,0.448
		c0.496,0,0.885-0.117,1.167-0.352c0.282-0.234,0.449-0.522,0.5-0.862c0.004-0.039,0.006-0.079,0.006-0.118
		c0-0.168-0.029-0.322-0.088-0.463c-0.07-0.172-0.177-0.314-0.319-0.428c-0.143-0.114-0.295-0.208-0.459-0.282
		s-0.346-0.135-0.545-0.182l-1.064-0.268c-1.346-0.34-2.019-1.058-2.019-2.155c0-0.449,0.125-0.854,0.376-1.213
		c0.25-0.359,0.578-0.635,0.984-0.826c0.407-0.191,0.846-0.287,1.314-0.287c0.771,0,1.408,0.221,1.912,0.662
		s0.757,1.027,0.757,1.758h-1.113c0-0.406-0.147-0.733-0.44-0.981s-0.669-0.372-1.127-0.372c-0.419,0-0.781,0.118-1.089,0.354
		c-0.308,0.235-0.461,0.54-0.461,0.912c0,0.582,0.39,0.97,1.169,1.164l1.078,0.261c0.795,0.205,1.385,0.522,1.77,0.954
		c0.318,0.358,0.478,0.785,0.478,1.278c0,0.109-0.008,0.221-0.023,0.334c-0.078,0.621-0.362,1.136-0.854,1.544
		s-1.127,0.612-1.909,0.612c-0.41,0-0.799-0.07-1.164-0.211s-0.674-0.326-0.924-0.557s-0.447-0.498-0.593-0.803
		C314.507,304.823,314.435,304.511,314.435,304.19z"/>
	<path fill="#FFFFFF" d="M321.818,306.581v-8.268h1.113v8.268H321.818z"/>
	<path fill="#FFFFFF" d="M324.718,306.581l1.011-8.268h1.027l2.91,6.07l2.916-6.07h1.027l1.011,8.268h-1.113l-0.756-6.218
		l-2.581,5.304h-0.984l-2.6-5.301l-0.755,6.215H324.718z"/>
	<path fill="#FFFFFF" d="M335.845,302.468c0-0.773,0.184-1.485,0.55-2.136c0.367-0.65,0.871-1.165,1.512-1.544
		c0.64-0.379,1.344-0.568,2.113-0.568c0.771,0,1.477,0.189,2.119,0.568s1.148,0.894,1.516,1.544s0.552,1.362,0.552,2.136
		c0,0.574-0.108,1.122-0.327,1.644c-0.217,0.521-0.511,0.972-0.881,1.351c-0.369,0.379-0.812,0.68-1.332,0.902
		s-1.068,0.334-1.646,0.334s-1.127-0.111-1.644-0.334s-0.96-0.523-1.329-0.902c-0.368-0.379-0.66-0.829-0.877-1.351
		S335.845,303.042,335.845,302.468z M337.36,300.868c-0.268,0.486-0.401,1.02-0.401,1.6s0.134,1.112,0.401,1.597
		s0.637,0.867,1.105,1.147c0.47,0.28,0.988,0.42,1.555,0.42c0.57,0,1.092-0.14,1.562-0.42c0.472-0.28,0.842-0.663,1.109-1.147
		s0.401-1.017,0.401-1.597s-0.134-1.113-0.401-1.6s-0.638-0.872-1.109-1.156c-0.471-0.284-0.992-0.426-1.562-0.426
		c-0.566,0-1.085,0.142-1.555,0.426C337.997,299.997,337.627,300.382,337.36,300.868z"/>
	<path fill="#FFFFFF" d="M345.941,306.581v-8.268h1.102l3.732,6.182v-6.182h1.113v8.268h-1.066l-3.768-6.229v6.229H345.941z"/>
</g>
<g>
	<path fill="#FFFFFF" d="M399.729,272.728h1.119c0.008,0.379,0.181,0.718,0.52,1.017c0.338,0.299,0.758,0.448,1.26,0.448
		c0.494,0,0.883-0.117,1.166-0.352c0.283-0.234,0.449-0.522,0.5-0.862c0.004-0.039,0.006-0.079,0.006-0.118
		c0-0.168-0.029-0.322-0.088-0.463c-0.07-0.172-0.177-0.314-0.319-0.428c-0.142-0.114-0.296-0.208-0.46-0.282
		s-0.346-0.135-0.544-0.182l-1.063-0.268c-1.347-0.34-2.02-1.058-2.02-2.155c0-0.449,0.125-0.854,0.375-1.213
		s0.579-0.635,0.986-0.826c0.406-0.191,0.844-0.287,1.313-0.287c0.771,0,1.407,0.221,1.912,0.662s0.757,1.027,0.757,1.758h-1.113
		c0-0.406-0.146-0.733-0.44-0.981s-0.669-0.372-1.127-0.372c-0.419,0-0.782,0.118-1.089,0.354c-0.308,0.235-0.461,0.54-0.461,0.912
		c0,0.582,0.39,0.97,1.169,1.164l1.079,0.261c0.793,0.205,1.383,0.522,1.769,0.954c0.318,0.358,0.478,0.785,0.478,1.278
		c0,0.109-0.008,0.221-0.023,0.334c-0.078,0.621-0.363,1.136-0.854,1.544s-1.127,0.612-1.908,0.612c-0.411,0-0.799-0.07-1.165-0.211
		s-0.674-0.326-0.924-0.557c-0.251-0.23-0.448-0.498-0.593-0.803S399.729,273.048,399.729,272.728z"/>
	<path fill="#FFFFFF" d="M406.297,267.894v-1.043h6.164v1.043h-2.525v7.225h-1.113v-7.225H406.297z"/>
	<path fill="#FFFFFF" d="M413.926,275.118v-8.268h4.893v1.043h-3.779v2.643h3.299v1.043h-3.299v2.496h3.902v1.043H413.926z"/>
	<path fill="#FFFFFF" d="M420.401,272.839v-1.043h4.178v1.043H420.401z"/>
	<path fill="#FFFFFF" d="M426.536,275.118v-8.268h1.113v3.65h3.996v-3.65h1.113v8.268h-1.113v-3.598h-3.996v3.598H426.536z"/>
	<path fill="#FFFFFF" d="M435.026,266.851h4.893v1.043h-3.779v2.643h3.299v1.043h-3.299v2.496h3.902v1.043h-5.016V266.851z
		 M437.516,265.808l1.43-1.852h-1.307l-1.166,1.852H437.516z"/>
	<path fill="#FFFFFF" d="M441.805,275.118v-8.268h1.113v7.225h3.369v1.043H441.805z"/>
	<path fill="#FFFFFF" d="M447.741,275.118v-8.268h4.893v1.043h-3.779v2.643h3.299v1.043h-3.299v2.496h3.902v1.043H447.741z
		 M448.385,263.956h1.307l1.166,1.852h-1.043L448.385,263.956z"/>
	<path fill="#FFFFFF" d="M454.52,275.118v-8.268h1.102l3.732,6.182v-6.182h1.113v8.268h-1.066l-3.768-6.229v6.229H454.52z"/>
	<path fill="#FFFFFF" d="M462.723,275.118v-8.268h4.893v1.043h-3.779v2.643h3.299v1.043h-3.299v2.496h3.902v1.043H462.723z"/>
	<path fill="#FFFFFF" d="M469.198,272.839v-1.043h4.178v1.043H469.198z"/>
	<path fill="#FFFFFF" d="M406.787,287.118v-8.268h3.199c0.574,0,1.098,0.106,1.57,0.319s0.864,0.506,1.175,0.879
		s0.551,0.812,0.721,1.318s0.255,1.052,0.255,1.638s-0.085,1.129-0.255,1.629s-0.411,0.935-0.724,1.304s-0.704,0.658-1.175,0.867
		s-0.993,0.313-1.567,0.313H406.787z M407.9,286.075h2.086c0.418,0,0.794-0.078,1.128-0.234s0.607-0.373,0.82-0.65
		s0.376-0.602,0.489-0.973s0.17-0.775,0.17-1.213c0-0.59-0.096-1.116-0.287-1.579s-0.487-0.834-0.888-1.113
		s-0.878-0.419-1.433-0.419H407.9V286.075z"/>
	<path fill="#FFFFFF" d="M415.47,287.118v-8.268h4.893v1.043h-3.779v2.643h3.299v1.043h-3.299v2.496h3.902v1.043H415.47z"/>
	<path fill="#FFFFFF" d="M421.945,284.839v-1.043h4.178v1.043H421.945z"/>
	<path fill="#FFFFFF" d="M428.08,287.118v-8.268h3.12c0.692,0,1.24,0.193,1.643,0.579c0.403,0.386,0.604,0.906,0.604,1.56
		c0,0.385-0.084,0.734-0.252,1.045c-0.168,0.312-0.436,0.537-0.803,0.677c0.441,0.094,0.8,0.343,1.075,0.747
		s0.413,0.827,0.413,1.269c0,0.434-0.095,0.83-0.284,1.189s-0.471,0.649-0.843,0.87s-0.805,0.331-1.296,0.331H428.08z
		 M429.193,282.284h1.996c0.353,0,0.624-0.121,0.815-0.361c0.192-0.241,0.288-0.539,0.288-0.892c0-0.358-0.109-0.637-0.329-0.837
		c-0.219-0.2-0.516-0.3-0.893-0.3h-1.878V282.284z M429.193,286.075h2.213c0.392,0,0.709-0.135,0.954-0.404
		c0.244-0.27,0.366-0.588,0.366-0.955c0-0.359-0.127-0.69-0.382-0.993c-0.254-0.303-0.578-0.454-0.975-0.454h-2.177V286.075z"/>
	<path fill="#FFFFFF" d="M434.619,287.118l3.141-8.268h1.201l3.129,8.268h-1.172l-0.803-2.086h-3.51l-0.803,2.086H434.619z
		 M436.992,284.013h2.736l-1.365-3.674L436.992,284.013z"/>
	<path fill="#FFFFFF" d="M442.804,283.004c0-0.773,0.183-1.485,0.548-2.135c0.365-0.65,0.868-1.165,1.509-1.544
		s1.346-0.568,2.115-0.568c0.535,0,1.043,0.096,1.523,0.287s0.904,0.459,1.271,0.803l-0.803,0.744
		c-0.574-0.512-1.238-0.768-1.992-0.768c-0.566,0-1.084,0.143-1.553,0.428s-0.837,0.671-1.104,1.157s-0.401,1.017-0.401,1.591
		c0,0.574,0.134,1.105,0.401,1.592c0.268,0.486,0.636,0.871,1.104,1.154s0.986,0.424,1.553,0.424c0.75,0,1.369-0.204,1.857-0.613
		c0.488-0.408,0.75-0.952,0.785-1.631h-2.355v-0.961h3.627c0,1.414-0.348,2.479-1.043,3.196s-1.652,1.075-2.871,1.075
		c-0.578,0-1.126-0.111-1.644-0.334s-0.961-0.523-1.329-0.902s-0.66-0.829-0.876-1.351
		C442.913,284.126,442.804,283.579,442.804,283.004z"/>
	<path fill="#FFFFFF" d="M451.875,283.005c0-0.773,0.184-1.485,0.55-2.136c0.367-0.65,0.871-1.165,1.512-1.544
		c0.64-0.379,1.344-0.568,2.113-0.568c0.771,0,1.477,0.189,2.119,0.568s1.148,0.894,1.516,1.544s0.552,1.362,0.552,2.136
		c0,0.574-0.108,1.122-0.327,1.644c-0.217,0.521-0.511,0.972-0.881,1.351c-0.369,0.379-0.812,0.68-1.332,0.902
		s-1.068,0.334-1.646,0.334s-1.127-0.111-1.644-0.334s-0.96-0.523-1.329-0.902c-0.368-0.379-0.66-0.829-0.877-1.351
		S451.875,283.579,451.875,283.005z M453.389,281.405c-0.268,0.486-0.401,1.02-0.401,1.6s0.134,1.112,0.401,1.597
		s0.637,0.867,1.105,1.147c0.47,0.28,0.988,0.42,1.555,0.42c0.57,0,1.092-0.14,1.562-0.42c0.472-0.28,0.842-0.663,1.109-1.147
		s0.401-1.017,0.401-1.597s-0.134-1.113-0.401-1.6s-0.638-0.872-1.109-1.156c-0.471-0.284-0.992-0.426-1.562-0.426
		c-0.566,0-1.085,0.142-1.555,0.426C454.026,280.534,453.657,280.919,453.389,281.405z"/>
	<path fill="#FFFFFF" d="M461.156,279.894v-1.043h6.164v1.043h-2.525v7.225h-1.113v-7.225H461.156z"/>
</g>
<g>
	<path fill="#FFFFFF" d="M287.43,520.19h1.119c0.008,0.379,0.181,0.718,0.52,1.017c0.338,0.299,0.758,0.448,1.259,0.448
		c0.495,0,0.884-0.117,1.167-0.352c0.282-0.234,0.449-0.522,0.5-0.862c0.004-0.039,0.006-0.079,0.006-0.118
		c0-0.168-0.029-0.322-0.088-0.463c-0.07-0.172-0.178-0.314-0.32-0.428c-0.142-0.113-0.295-0.207-0.459-0.281
		s-0.346-0.135-0.545-0.182l-1.063-0.269c-1.346-0.34-2.019-1.058-2.019-2.155c0-0.449,0.125-0.854,0.375-1.213
		c0.25-0.359,0.579-0.635,0.985-0.826s0.845-0.287,1.313-0.287c0.771,0,1.408,0.221,1.912,0.662
		c0.505,0.441,0.758,1.027,0.758,1.758h-1.113c0-0.406-0.147-0.733-0.441-0.981c-0.293-0.248-0.668-0.372-1.127-0.372
		c-0.418,0-0.781,0.117-1.088,0.354c-0.308,0.235-0.461,0.539-0.461,0.912c0,0.582,0.39,0.969,1.168,1.164l1.079,0.26
		c0.794,0.205,1.384,0.523,1.769,0.955c0.318,0.357,0.479,0.784,0.479,1.277c0,0.109-0.008,0.221-0.023,0.334
		c-0.078,0.621-0.363,1.136-0.854,1.544c-0.491,0.408-1.127,0.612-1.909,0.612c-0.411,0-0.799-0.07-1.165-0.211
		s-0.674-0.326-0.924-0.557c-0.25-0.23-0.448-0.498-0.593-0.803C287.502,520.823,287.43,520.511,287.43,520.19z"/>
	<path fill="#FFFFFF" d="M293.999,515.356v-1.043h6.164v1.043h-2.525v7.225h-1.113v-7.225H293.999z"/>
	<path fill="#FFFFFF" d="M301.323,520.302v-1.043h4.178v1.043H301.323z"/>
	<path fill="#FFFFFF" d="M307.458,522.581v-8.268h3.199c0.574,0,1.098,0.106,1.57,0.319s0.863,0.506,1.174,0.879
		s0.551,0.812,0.721,1.318s0.256,1.052,0.256,1.638s-0.086,1.129-0.256,1.629s-0.41,0.935-0.723,1.304s-0.705,0.658-1.176,0.867
		s-0.992,0.313-1.566,0.313H307.458z M308.571,521.538h2.086c0.418,0,0.793-0.078,1.127-0.234s0.607-0.373,0.82-0.65
		s0.377-0.602,0.49-0.973s0.17-0.775,0.17-1.213c0-0.59-0.096-1.116-0.287-1.579s-0.488-0.834-0.889-1.113s-0.877-0.419-1.432-0.419
		h-2.086V521.538z"/>
	<path fill="#FFFFFF" d="M315.596,518.468c0-0.773,0.184-1.485,0.55-2.136c0.367-0.65,0.87-1.165,1.511-1.544
		s1.345-0.568,2.113-0.568c0.771,0,1.478,0.189,2.12,0.568c0.642,0.379,1.147,0.894,1.515,1.544c0.368,0.65,0.553,1.362,0.553,2.136
		c0,0.574-0.109,1.122-0.327,1.644s-0.511,0.972-0.881,1.351c-0.369,0.379-0.813,0.68-1.333,0.902
		c-0.519,0.223-1.067,0.334-1.646,0.334c-0.578,0-1.126-0.111-1.643-0.334c-0.518-0.223-0.961-0.523-1.329-0.902
		s-0.661-0.829-0.878-1.351S315.596,519.042,315.596,518.468z M317.111,516.868c-0.269,0.486-0.401,1.02-0.401,1.6
		s0.133,1.112,0.401,1.597c0.268,0.484,0.636,0.866,1.105,1.147c0.47,0.279,0.987,0.42,1.554,0.42c0.571,0,1.092-0.141,1.563-0.42
		c0.472-0.281,0.841-0.663,1.108-1.147s0.402-1.017,0.402-1.597s-0.135-1.113-0.402-1.6s-0.637-0.871-1.108-1.156
		c-0.472-0.283-0.992-0.426-1.563-0.426c-0.566,0-1.084,0.143-1.554,0.426C317.747,515.997,317.378,516.382,317.111,516.868z"/>
	<path fill="#FFFFFF" d="M325.223,522.581l1.01-8.268h1.027l2.91,6.07l2.916-6.07h1.027l1.012,8.268h-1.113l-0.756-6.218
		l-2.582,5.304h-0.983l-2.6-5.301l-0.755,6.215H325.223z"/>
	<path fill="#FFFFFF" d="M336.895,522.581v-8.268h1.113v8.268H336.895z"/>
	<path fill="#FFFFFF" d="M340.264,522.581v-8.268h1.102l3.732,6.182v-6.182h1.113v8.268h-1.066l-3.768-6.229v6.229H340.264z"/>
	<path fill="#FFFFFF" d="M348.467,522.581v-8.268h1.113v8.268H348.467z"/>
	<path fill="#FFFFFF" d="M351.292,518.462c0-0.772,0.184-1.483,0.55-2.133c0.367-0.649,0.87-1.164,1.511-1.542
		s1.345-0.567,2.113-0.567c0.771,0,1.478,0.189,2.12,0.567c0.642,0.378,1.147,0.893,1.515,1.542c0.368,0.649,0.553,1.36,0.553,2.133
		c0,0.748-0.176,1.439-0.526,2.074c-0.351,0.637-0.825,1.146-1.427,1.529l0.862,1.365l-0.862,0.533l-0.926-1.465
		c-0.402,0.133-0.839,0.199-1.309,0.199c-0.577,0-1.125-0.111-1.643-0.334c-0.517-0.224-0.959-0.524-1.328-0.904
		c-0.369-0.379-0.662-0.83-0.879-1.352C351.399,519.585,351.292,519.037,351.292,518.462z M352.405,518.462
		c0,0.838,0.27,1.554,0.809,2.148c0.54,0.596,1.219,0.916,2.035,0.963c0.102,0.008,0.199,0.012,0.293,0.012
		c0.219,0,0.427-0.02,0.622-0.059l-0.845-1.373l0.856-0.541l0.938,1.515c0.441-0.278,0.79-0.65,1.044-1.118
		c0.255-0.468,0.382-0.983,0.382-1.547c0-0.579-0.135-1.111-0.402-1.597s-0.637-0.87-1.108-1.153s-0.992-0.426-1.563-0.426
		c-0.566,0-1.084,0.143-1.554,0.426s-0.838,0.668-1.105,1.153C352.538,517.351,352.405,517.883,352.405,518.462z"/>
	<path fill="#FFFFFF" d="M361.299,519.739v-5.426h1.113v5.435c0,0.556,0.185,1.009,0.555,1.358c0.369,0.351,0.816,0.525,1.34,0.525
		c0.529,0,0.978-0.175,1.348-0.525c0.369-0.35,0.555-0.803,0.555-1.358v-5.435h1.113v5.426c0,0.438-0.081,0.844-0.242,1.219
		c-0.162,0.375-0.38,0.688-0.654,0.94c-0.273,0.252-0.594,0.448-0.96,0.589s-0.752,0.211-1.159,0.211
		c-0.406,0-0.793-0.07-1.157-0.211s-0.685-0.337-0.958-0.589s-0.49-0.565-0.651-0.94S361.299,520.177,361.299,519.739z"/>
	<path fill="#FFFFFF" d="M369.52,522.581v-8.268h4.893v1.043h-3.779v2.643h3.299v1.043h-3.299v2.496h3.902v1.043H369.52z"/>
</g>
<g>
	<path fill="#FFFFFF" d="M311.609,182.292h1.119c0.008,0.379,0.181,0.718,0.52,1.017s0.759,0.448,1.259,0.448
		c0.496,0,0.885-0.117,1.167-0.352c0.282-0.234,0.449-0.522,0.5-0.862c0.004-0.039,0.006-0.079,0.006-0.118
		c0-0.168-0.029-0.322-0.088-0.463c-0.07-0.172-0.177-0.314-0.319-0.428c-0.143-0.114-0.295-0.208-0.459-0.282
		s-0.346-0.135-0.545-0.182l-1.064-0.268c-1.346-0.34-2.019-1.058-2.019-2.155c0-0.449,0.125-0.854,0.376-1.213
		c0.25-0.359,0.578-0.635,0.984-0.826c0.407-0.191,0.846-0.287,1.314-0.287c0.771,0,1.408,0.221,1.912,0.662
		s0.757,1.027,0.757,1.758h-1.113c0-0.406-0.147-0.733-0.44-0.981s-0.669-0.372-1.127-0.372c-0.419,0-0.781,0.118-1.089,0.354
		c-0.308,0.235-0.461,0.54-0.461,0.912c0,0.582,0.39,0.97,1.169,1.164l1.078,0.261c0.795,0.205,1.385,0.522,1.77,0.954
		c0.318,0.358,0.478,0.785,0.478,1.278c0,0.109-0.008,0.221-0.023,0.334c-0.078,0.621-0.362,1.136-0.854,1.544
		s-1.127,0.612-1.909,0.612c-0.41,0-0.799-0.07-1.164-0.211s-0.674-0.326-0.924-0.557s-0.447-0.498-0.593-0.803
		C311.681,182.925,311.609,182.613,311.609,182.292z"/>
	<path fill="#FFFFFF" d="M318.177,177.458v-1.043h6.164v1.043h-2.525v7.225h-1.113v-7.225H318.177z"/>
	<path fill="#FFFFFF" d="M325.501,182.404v-1.043h4.178v1.043H325.501z"/>
	<path fill="#FFFFFF" d="M331.636,184.683v-8.268h1.113v3.65h3.996v-3.65h1.113v8.268h-1.113v-3.598h-3.996v3.598H331.636z"/>
	<path fill="#FFFFFF" d="M340.039,181.841v-5.426h1.113v5.435c0,0.556,0.185,1.008,0.555,1.358c0.37,0.351,0.816,0.525,1.341,0.525
		c0.528,0,0.977-0.175,1.347-0.525c0.37-0.35,0.555-0.803,0.555-1.358v-5.435h1.113v5.426c0,0.438-0.081,0.844-0.242,1.219
		s-0.38,0.688-0.653,0.94c-0.274,0.252-0.595,0.448-0.961,0.589c-0.365,0.141-0.752,0.211-1.158,0.211s-0.793-0.07-1.158-0.211
		c-0.364-0.141-0.684-0.337-0.957-0.589s-0.49-0.565-0.652-0.94C340.12,182.685,340.039,182.279,340.039,181.841z"/>
	<path fill="#FFFFFF" d="M347.714,180.569c0-0.773,0.183-1.485,0.548-2.135c0.365-0.65,0.868-1.165,1.509-1.544
		s1.346-0.568,2.115-0.568c0.535,0,1.043,0.096,1.523,0.287s0.904,0.459,1.271,0.803l-0.803,0.744
		c-0.574-0.512-1.238-0.768-1.992-0.768c-0.566,0-1.084,0.143-1.553,0.428s-0.837,0.671-1.104,1.157s-0.401,1.017-0.401,1.591
		c0,0.574,0.134,1.105,0.401,1.592c0.268,0.486,0.636,0.871,1.104,1.154s0.986,0.424,1.553,0.424c0.75,0,1.369-0.204,1.857-0.613
		c0.488-0.408,0.75-0.952,0.785-1.631h-2.355v-0.961h3.627c0,1.414-0.348,2.479-1.043,3.196s-1.652,1.075-2.871,1.075
		c-0.578,0-1.126-0.111-1.644-0.334s-0.961-0.523-1.329-0.902s-0.66-0.829-0.876-1.351
		C347.823,181.691,347.714,181.144,347.714,180.569z"/>
	<path fill="#FFFFFF" d="M357.242,181.841v-5.426h1.113v5.435c0,0.556,0.185,1.008,0.555,1.358c0.37,0.351,0.816,0.525,1.341,0.525
		c0.528,0,0.977-0.175,1.347-0.525c0.37-0.35,0.555-0.803,0.555-1.358v-5.435h1.113v5.426c0,0.438-0.081,0.844-0.242,1.219
		s-0.38,0.688-0.653,0.94c-0.274,0.252-0.595,0.448-0.961,0.589c-0.365,0.141-0.752,0.211-1.158,0.211s-0.793-0.07-1.158-0.211
		c-0.364-0.141-0.684-0.337-0.957-0.589s-0.49-0.565-0.652-0.94C357.323,182.685,357.242,182.279,357.242,181.841z"/>
	<path fill="#FFFFFF" d="M365.462,184.683v-8.268h4.893v1.043h-3.779v2.643h3.299v1.043h-3.299v2.496h3.902v1.043H365.462z"/>
	<path fill="#FFFFFF" d="M371.732,182.292h1.119c0.008,0.379,0.181,0.718,0.52,1.017s0.759,0.448,1.259,0.448
		c0.496,0,0.885-0.117,1.167-0.352c0.282-0.234,0.449-0.522,0.5-0.862c0.004-0.039,0.006-0.079,0.006-0.118
		c0-0.168-0.029-0.322-0.088-0.463c-0.07-0.172-0.177-0.314-0.319-0.428c-0.143-0.114-0.295-0.208-0.459-0.282
		s-0.346-0.135-0.545-0.182l-1.064-0.268c-1.346-0.34-2.019-1.058-2.019-2.155c0-0.449,0.125-0.854,0.376-1.213
		c0.25-0.359,0.578-0.635,0.984-0.826c0.407-0.191,0.846-0.287,1.314-0.287c0.771,0,1.408,0.221,1.912,0.662
		s0.757,1.027,0.757,1.758h-1.113c0-0.406-0.147-0.733-0.44-0.981s-0.669-0.372-1.127-0.372c-0.419,0-0.781,0.118-1.089,0.354
		c-0.308,0.235-0.461,0.54-0.461,0.912c0,0.582,0.39,0.97,1.169,1.164l1.078,0.261c0.795,0.205,1.385,0.522,1.77,0.954
		c0.318,0.358,0.478,0.785,0.478,1.278c0,0.109-0.008,0.221-0.023,0.334c-0.078,0.621-0.362,1.136-0.854,1.544
		s-1.127,0.612-1.909,0.612c-0.41,0-0.799-0.07-1.164-0.211s-0.674-0.326-0.924-0.557s-0.447-0.498-0.593-0.803
		C371.804,182.925,371.732,182.613,371.732,182.292z"/>
</g>
<g>
	<path fill="#FFFFFF" d="M142.413,207.97h1.119c0.008,0.379,0.181,0.718,0.52,1.017c0.338,0.299,0.758,0.448,1.259,0.448
		c0.495,0,0.884-0.117,1.167-0.352c0.283-0.234,0.449-0.522,0.5-0.862c0.004-0.039,0.006-0.079,0.006-0.118
		c0-0.168-0.029-0.322-0.088-0.463c-0.07-0.172-0.177-0.314-0.319-0.428c-0.142-0.114-0.295-0.208-0.459-0.282
		s-0.346-0.135-0.544-0.182l-1.064-0.268c-1.346-0.34-2.019-1.058-2.019-2.155c0-0.449,0.125-0.854,0.375-1.213
		c0.25-0.359,0.579-0.635,0.985-0.826s0.845-0.287,1.314-0.287c0.771,0,1.408,0.221,1.912,0.662s0.757,1.027,0.757,1.758h-1.113
		c0-0.406-0.147-0.733-0.44-0.981s-0.669-0.372-1.127-0.372c-0.419,0-0.782,0.118-1.089,0.354c-0.308,0.235-0.461,0.54-0.461,0.912
		c0,0.582,0.39,0.97,1.169,1.164l1.079,0.261c0.794,0.205,1.384,0.522,1.769,0.954c0.318,0.358,0.478,0.785,0.478,1.278
		c0,0.109-0.008,0.221-0.023,0.334c-0.078,0.621-0.363,1.136-0.854,1.544s-1.127,0.612-1.909,0.612c-0.411,0-0.799-0.07-1.165-0.211
		s-0.674-0.326-0.924-0.557c-0.25-0.23-0.448-0.498-0.593-0.803C142.485,208.603,142.413,208.291,142.413,207.97z"/>
	<path fill="#FFFFFF" d="M148.981,203.136v-1.043h6.164v1.043h-2.525v7.225h-1.113v-7.225H148.981z"/>
	<path fill="#FFFFFF" d="M156.306,208.082v-1.043h4.178v1.043H156.306z"/>
	<path fill="#FFFFFF" d="M160.108,213.244l0.111-1.061c0.078,0.027,0.212,0.051,0.401,0.07s0.319,0.029,0.39,0.029
		c0.332,0,0.608-0.075,0.829-0.226s0.376-0.341,0.466-0.571s0.135-0.498,0.135-0.803v-8.59h1.113v8.59
		c0,0.301-0.028,0.581-0.085,0.841s-0.149,0.504-0.278,0.732s-0.289,0.425-0.48,0.589s-0.432,0.293-0.721,0.387
		s-0.615,0.141-0.979,0.141C160.831,213.373,160.53,213.33,160.108,213.244z"/>
	<path fill="#FFFFFF" d="M165.722,207.519v-5.426h1.113v5.435c0,0.556,0.185,1.008,0.555,1.358c0.37,0.351,0.816,0.525,1.341,0.525
		c0.528,0,0.977-0.175,1.347-0.525c0.37-0.35,0.555-0.803,0.555-1.358v-5.435h1.113v5.426c0,0.438-0.081,0.844-0.242,1.219
		s-0.379,0.688-0.654,0.94c-0.274,0.252-0.594,0.448-0.96,0.589s-0.752,0.211-1.159,0.211s-0.793-0.07-1.158-0.211
		s-0.684-0.337-0.958-0.589s-0.491-0.565-0.652-0.94S165.722,207.957,165.722,207.519z"/>
	<path fill="#FFFFFF" d="M173.942,210.361v-8.268h3.199c0.574,0,1.098,0.106,1.57,0.319s0.864,0.506,1.175,0.879
		s0.551,0.812,0.721,1.318s0.255,1.052,0.255,1.638s-0.085,1.129-0.255,1.629s-0.411,0.935-0.724,1.304s-0.704,0.658-1.175,0.867
		s-0.993,0.313-1.567,0.313H173.942z M175.056,209.318h2.086c0.418,0,0.794-0.078,1.128-0.234s0.607-0.373,0.82-0.65
		s0.376-0.602,0.489-0.973s0.17-0.775,0.17-1.213c0-0.59-0.096-1.116-0.287-1.579s-0.487-0.834-0.888-1.113
		s-0.878-0.419-1.433-0.419h-2.086V209.318z"/>
	<path fill="#FFFFFF" d="M182.626,210.361v-8.268h4.893v1.043h-3.779v2.643h3.299v1.043h-3.299v2.496h3.902v1.043H182.626z"/>
</g>
<g>
	<path fill="#FFFFFF" d="M81.964,341.581v-8.268h1.113v7.225h3.369v1.043H81.964z"/>
	<path fill="#FFFFFF" d="M86.903,341.581l3.141-8.268h1.201l3.129,8.268h-1.172l-0.803-2.086h-3.51l-0.803,2.086H86.903z
		 M89.276,338.476h2.736l-1.365-3.674L89.276,338.476z"/>
	<path fill="#FFFFFF" d="M47.449,353.581v-8.268h3.292c0.421,0,0.793,0.073,1.117,0.22c0.323,0.146,0.58,0.344,0.769,0.592
		s0.332,0.522,0.427,0.823c0.095,0.301,0.143,0.619,0.143,0.955c0,0.339-0.048,0.658-0.144,0.956
		c-0.096,0.298-0.238,0.571-0.428,0.818s-0.446,0.443-0.771,0.587s-0.697,0.216-1.119,0.216h-2.174v3.1H47.449z M48.562,349.438
		h2.101c0.321,0,0.592-0.076,0.813-0.229s0.377-0.341,0.469-0.565c0.092-0.225,0.138-0.472,0.138-0.741
		c0-0.266-0.044-0.512-0.132-0.738c-0.088-0.227-0.237-0.418-0.449-0.574s-0.47-0.234-0.775-0.234h-2.166V349.438z"/>
	<path fill="#FFFFFF" d="M54.721,353.581v-8.268h3.172c0.417,0,0.788,0.073,1.112,0.22c0.324,0.146,0.58,0.344,0.767,0.592
		c0.188,0.248,0.329,0.522,0.424,0.823s0.144,0.619,0.144,0.955c0,0.316-0.041,0.614-0.123,0.895s-0.208,0.54-0.375,0.778
		s-0.394,0.434-0.677,0.587c-0.284,0.154-0.613,0.247-0.988,0.278l2.21,3.14h-1.354l-2.142-3.1h-1.057v3.1H54.721z M55.834,349.438
		h1.972c0.243,0,0.456-0.043,0.64-0.129c0.184-0.086,0.328-0.203,0.432-0.352c0.104-0.148,0.181-0.312,0.232-0.489
		c0.051-0.178,0.076-0.366,0.076-0.565c0-0.27-0.042-0.517-0.126-0.741c-0.084-0.225-0.229-0.415-0.437-0.571
		s-0.464-0.234-0.769-0.234h-2.019V349.438z"/>
	<path fill="#FFFFFF" d="M62.145,345.313h4.893v1.043h-3.779v2.643h3.299v1.043h-3.299v2.496h3.902v1.043h-5.016V345.313z
		 M64.635,344.271l1.43-1.852h-1.307l-1.166,1.852H64.635z"/>
	<path fill="#FFFFFF" d="M68.414,351.19h1.119c0.008,0.379,0.181,0.718,0.52,1.017c0.338,0.299,0.758,0.448,1.259,0.448
		c0.495,0,0.884-0.117,1.167-0.352c0.283-0.234,0.449-0.522,0.5-0.862c0.004-0.039,0.006-0.079,0.006-0.118
		c0-0.168-0.029-0.322-0.088-0.463c-0.07-0.172-0.177-0.314-0.319-0.428c-0.142-0.114-0.295-0.208-0.459-0.282
		s-0.346-0.135-0.544-0.182l-1.064-0.268c-1.346-0.34-2.019-1.058-2.019-2.155c0-0.449,0.125-0.854,0.375-1.213
		c0.25-0.359,0.579-0.635,0.985-0.826s0.845-0.287,1.314-0.287c0.771,0,1.408,0.221,1.912,0.662s0.757,1.027,0.757,1.758h-1.113
		c0-0.406-0.147-0.733-0.44-0.981s-0.669-0.372-1.127-0.372c-0.419,0-0.782,0.118-1.089,0.354c-0.308,0.235-0.461,0.54-0.461,0.912
		c0,0.582,0.39,0.97,1.169,1.164l1.079,0.261c0.794,0.205,1.384,0.522,1.769,0.954c0.318,0.358,0.478,0.785,0.478,1.278
		c0,0.109-0.008,0.221-0.023,0.334c-0.078,0.621-0.363,1.136-0.854,1.544s-1.127,0.612-1.909,0.612c-0.411,0-0.799-0.07-1.165-0.211
		s-0.674-0.326-0.924-0.557c-0.25-0.23-0.448-0.498-0.593-0.803C68.486,351.823,68.414,351.511,68.414,351.19z"/>
	<path fill="#FFFFFF" d="M75.797,353.581v-8.268h4.893v1.043H76.91v2.643h3.299v1.043H76.91v2.496h3.902v1.043H75.797z"/>
	<path fill="#FFFFFF" d="M82.576,353.581v-8.268h1.102l3.732,6.182v-6.182h1.113v8.268h-1.066l-3.768-6.229v6.229H82.576z"/>
	<path fill="#FFFFFF" d="M89.965,346.356v-1.043h6.164v1.043h-2.525v7.225H92.49v-7.225H89.965z"/>
	<path fill="#FFFFFF" d="M96.598,353.581l3.141-8.268h1.201l3.129,8.268h-1.172l-0.803-2.086h-3.51l-0.803,2.086H96.598z
		 M98.971,350.476h2.736l-1.365-3.674L98.971,350.476z"/>
	<path fill="#FFFFFF" d="M104.514,346.356v-1.043h6.164v1.043h-2.525v7.225h-1.113v-7.225H104.514z"/>
	<path fill="#FFFFFF" d="M112.143,353.581v-8.268h1.113v8.268H112.143z"/>
	<path fill="#FFFFFF" d="M114.967,349.468c0-0.773,0.184-1.485,0.55-2.136c0.367-0.65,0.871-1.165,1.511-1.544
		s1.345-0.568,2.114-0.568c0.771,0,1.477,0.189,2.12,0.568c0.642,0.379,1.147,0.894,1.515,1.544s0.552,1.362,0.552,2.136
		c0,0.574-0.109,1.122-0.327,1.644s-0.511,0.972-0.881,1.351c-0.369,0.379-0.813,0.68-1.333,0.902s-1.068,0.334-1.646,0.334
		s-1.126-0.111-1.644-0.334s-0.96-0.523-1.329-0.902s-0.661-0.829-0.878-1.351C115.075,350.59,114.967,350.042,114.967,349.468z
		 M116.482,347.868c-0.268,0.486-0.402,1.02-0.402,1.6s0.134,1.112,0.402,1.597c0.268,0.484,0.636,0.867,1.105,1.147
		s0.987,0.42,1.554,0.42c0.571,0,1.092-0.14,1.563-0.42s0.841-0.663,1.108-1.147c0.268-0.484,0.402-1.017,0.402-1.597
		s-0.134-1.113-0.402-1.6c-0.268-0.486-0.637-0.872-1.108-1.156s-0.992-0.426-1.563-0.426c-0.567,0-1.085,0.142-1.554,0.426
		S116.75,347.382,116.482,347.868z"/>
	<path fill="#FFFFFF" d="M125.062,353.581v-8.268h1.102l3.732,6.182v-6.182h1.113v8.268h-1.066l-3.768-6.229v6.229H125.062z"/>
</g>
<g>
	<path fill="#FFFFFF" d="M229.012,83.385h1.119c0.008,0.379,0.181,0.718,0.52,1.017c0.338,0.299,0.758,0.448,1.259,0.448
		c0.495,0,0.884-0.117,1.167-0.352c0.283-0.234,0.449-0.522,0.5-0.862c0.004-0.039,0.006-0.079,0.006-0.118
		c0-0.168-0.029-0.322-0.088-0.463c-0.07-0.172-0.177-0.314-0.319-0.428c-0.142-0.114-0.295-0.208-0.459-0.282
		s-0.346-0.135-0.544-0.182l-1.064-0.268c-1.346-0.34-2.019-1.058-2.019-2.155c0-0.449,0.125-0.854,0.375-1.213
		c0.25-0.359,0.579-0.635,0.985-0.826s0.845-0.287,1.314-0.287c0.771,0,1.408,0.221,1.912,0.662s0.757,1.027,0.757,1.758h-1.113
		c0-0.406-0.147-0.733-0.44-0.981s-0.669-0.372-1.127-0.372c-0.419,0-0.782,0.118-1.089,0.354c-0.308,0.235-0.461,0.54-0.461,0.912
		c0,0.582,0.39,0.97,1.169,1.164l1.079,0.261c0.794,0.205,1.384,0.522,1.769,0.954c0.318,0.358,0.478,0.785,0.478,1.278
		c0,0.109-0.008,0.221-0.023,0.334c-0.078,0.621-0.363,1.136-0.854,1.544s-1.127,0.612-1.909,0.612c-0.411,0-0.799-0.07-1.165-0.211
		s-0.674-0.326-0.924-0.557c-0.25-0.23-0.448-0.498-0.593-0.803C229.084,84.018,229.012,83.705,229.012,83.385z"/>
	<path fill="#FFFFFF" d="M235.58,78.551v-1.043h6.164v1.043h-2.525v7.225h-1.113v-7.225H235.58z"/>
	<path fill="#FFFFFF" d="M242.904,83.496v-1.043h4.178v1.043H242.904z"/>
	<path fill="#FFFFFF" d="M248.57,85.775l1.011-8.268h1.027l2.91,6.07l2.916-6.07h1.027l1.011,8.268h-1.113l-0.756-6.218
		l-2.582,5.304h-0.983l-2.6-5.301l-0.755,6.215H248.57z"/>
	<path fill="#FFFFFF" d="M259.246,85.775l3.141-8.268h1.201l3.129,8.268h-1.172l-0.803-2.086h-3.51l-0.803,2.086H259.246z
		 M261.619,82.67h2.736l-1.365-3.674L261.619,82.67z"/>
	<path fill="#FFFFFF" d="M267.977,85.775v-8.268h3.172c0.417,0,0.788,0.073,1.112,0.22c0.324,0.146,0.58,0.344,0.767,0.592
		c0.188,0.248,0.329,0.522,0.424,0.823s0.144,0.619,0.144,0.955c0,0.316-0.041,0.614-0.123,0.895s-0.208,0.54-0.375,0.778
		s-0.394,0.434-0.677,0.587c-0.284,0.154-0.613,0.247-0.988,0.278l2.21,3.14h-1.354l-2.142-3.1h-1.057v3.1H267.977z M269.09,81.633
		h1.972c0.243,0,0.456-0.043,0.64-0.129c0.184-0.086,0.328-0.203,0.432-0.352c0.104-0.148,0.181-0.312,0.232-0.489
		c0.051-0.178,0.076-0.366,0.076-0.565c0-0.27-0.042-0.517-0.126-0.741c-0.084-0.225-0.229-0.415-0.437-0.571
		s-0.464-0.234-0.769-0.234h-2.019V81.633z"/>
	<path fill="#FFFFFF" d="M274.855,81.662c0-0.773,0.185-1.485,0.554-2.136s0.875-1.165,1.518-1.544s1.347-0.568,2.112-0.568
		c0.625,0,1.206,0.123,1.743,0.369c0.537,0.247,0.993,0.586,1.368,1.021l-0.844,0.7c-0.293-0.318-0.634-0.567-1.022-0.75
		c-0.389-0.182-0.804-0.273-1.245-0.273c-0.566,0-1.085,0.142-1.556,0.426s-0.841,0.669-1.11,1.156s-0.404,1.02-0.404,1.6
		c0,0.576,0.135,1.108,0.404,1.594c0.27,0.486,0.64,0.87,1.11,1.15s0.989,0.42,1.556,0.42c0.457,0,0.883-0.093,1.277-0.279
		s0.732-0.446,1.014-0.779l0.844,0.711c-0.371,0.442-0.828,0.789-1.371,1.039s-1.131,0.375-1.764,0.375
		c-0.574,0-1.12-0.111-1.638-0.334s-0.962-0.523-1.335-0.902c-0.372-0.379-0.667-0.829-0.885-1.351
		C274.964,82.784,274.855,82.236,274.855,81.662z"/>
	<path fill="#FFFFFF" d="M283.592,85.775v-8.268h4.893v1.043h-3.779v2.643h3.299v1.043h-3.299v2.496h3.902v1.043H283.592z"/>
	<path fill="#FFFFFF" d="M290.372,85.775v-8.268h1.113v7.225h3.369v1.043H290.372z"/>
	<path fill="#FFFFFF" d="M296.002,83.496v-1.043h4.178v1.043H296.002z"/>
	<path fill="#FFFFFF" d="M225.947,97.775v-8.268h3.199c0.574,0,1.098,0.106,1.57,0.319s0.864,0.506,1.175,0.879
		s0.551,0.812,0.721,1.318s0.255,1.052,0.255,1.638s-0.085,1.129-0.255,1.629s-0.411,0.935-0.724,1.304s-0.704,0.658-1.175,0.867
		s-0.993,0.313-1.567,0.313H225.947z M227.061,96.732h2.086c0.418,0,0.794-0.078,1.128-0.234s0.607-0.373,0.82-0.65
		s0.376-0.602,0.489-0.973s0.17-0.775,0.17-1.213c0-0.59-0.096-1.116-0.287-1.579s-0.487-0.834-0.888-1.113
		s-0.878-0.419-1.433-0.419h-2.086V96.732z"/>
	<path fill="#FFFFFF" d="M234.631,97.775v-8.268h4.893v1.043h-3.779v2.643h3.299v1.043h-3.299v2.496h3.902v1.043H234.631z"/>
	<path fill="#FFFFFF" d="M241.105,95.496v-1.043h4.178v1.043H241.105z"/>
	<path fill="#FFFFFF" d="M247.24,97.775v-8.268h3.172c0.417,0,0.788,0.073,1.112,0.22c0.324,0.146,0.58,0.344,0.767,0.592
		c0.188,0.248,0.329,0.522,0.424,0.823s0.144,0.619,0.144,0.955c0,0.316-0.041,0.614-0.123,0.895s-0.208,0.54-0.375,0.778
		s-0.394,0.434-0.677,0.587c-0.284,0.154-0.613,0.247-0.988,0.278l2.21,3.14h-1.354l-2.142-3.1h-1.057v3.1H247.24z M248.354,93.633
		h1.972c0.243,0,0.456-0.043,0.64-0.129c0.184-0.086,0.328-0.203,0.432-0.352c0.104-0.148,0.181-0.312,0.232-0.489
		c0.051-0.178,0.076-0.366,0.076-0.565c0-0.27-0.042-0.517-0.126-0.741c-0.084-0.225-0.229-0.415-0.437-0.571
		s-0.464-0.234-0.769-0.234h-2.019V93.633z"/>
	<path fill="#FFFFFF" d="M254.664,97.775v-8.268h1.113v8.268H254.664z"/>
	<path fill="#FFFFFF" d="M257.488,93.662c0-0.773,0.185-1.485,0.554-2.136s0.875-1.165,1.518-1.544s1.347-0.568,2.112-0.568
		c0.625,0,1.206,0.123,1.743,0.369c0.537,0.247,0.993,0.586,1.368,1.021l-0.844,0.7c-0.293-0.318-0.634-0.567-1.022-0.75
		c-0.389-0.182-0.804-0.273-1.245-0.273c-0.566,0-1.085,0.142-1.556,0.426s-0.841,0.669-1.11,1.156s-0.404,1.02-0.404,1.6
		c0,0.576,0.135,1.108,0.404,1.594c0.27,0.486,0.64,0.87,1.11,1.15s0.989,0.42,1.556,0.42c0.457,0,0.883-0.093,1.277-0.279
		s0.732-0.446,1.014-0.779l0.844,0.711c-0.371,0.442-0.828,0.789-1.371,1.039s-1.131,0.375-1.764,0.375
		c-0.574,0-1.12-0.111-1.638-0.334s-0.962-0.523-1.335-0.902c-0.372-0.379-0.667-0.829-0.885-1.351
		C257.597,94.784,257.488,94.236,257.488,93.662z"/>
	<path fill="#FFFFFF" d="M266.225,97.775v-8.268h1.113v3.65h3.996v-3.65h1.113v8.268h-1.113v-3.598h-3.996v3.598H266.225z"/>
	<path fill="#FFFFFF" d="M274.715,97.775v-8.268h4.893v1.043h-3.779v2.643h3.299v1.043h-3.299v2.496h3.902v1.043H274.715z"/>
	<path fill="#FFFFFF" d="M281.494,97.775v-8.268h1.113v7.225h3.369v1.043H281.494z"/>
	<path fill="#FFFFFF" d="M287.43,97.775v-8.268h1.113v8.268H287.43z"/>
	<path fill="#FFFFFF" d="M290.799,97.775v-8.268h4.893v1.043h-3.779v2.643h3.299v1.043h-3.299v2.496h3.902v1.043H290.799z"/>
	<path fill="#FFFFFF" d="M297.491,94.934v-5.426h1.113v5.435c0,0.556,0.185,1.008,0.555,1.358c0.369,0.351,0.816,0.525,1.34,0.525
		c0.529,0,0.978-0.175,1.348-0.525c0.369-0.35,0.555-0.803,0.555-1.358v-5.435h1.113v5.426c0,0.438-0.081,0.844-0.242,1.219
		c-0.162,0.375-0.38,0.688-0.654,0.94c-0.273,0.252-0.594,0.448-0.96,0.589s-0.752,0.211-1.159,0.211
		c-0.406,0-0.793-0.07-1.157-0.211s-0.685-0.337-0.958-0.589s-0.49-0.565-0.651-0.94S297.491,95.371,297.491,94.934z"/>
</g>
<g>
	<path fill="#FFFFFF" d="M37.833,145.589h0.933c0.006,0.316,0.151,0.598,0.433,0.847c0.282,0.249,0.631,0.374,1.049,0.374
		c0.413,0,0.737-0.098,0.973-0.293c0.235-0.195,0.374-0.435,0.417-0.718c0.003-0.033,0.005-0.065,0.005-0.098
		c0-0.14-0.024-0.269-0.073-0.386c-0.059-0.144-0.147-0.262-0.266-0.357c-0.119-0.094-0.246-0.172-0.383-0.234
		s-0.288-0.112-0.454-0.152l-0.886-0.223c-1.122-0.283-1.683-0.882-1.683-1.796c0-0.375,0.104-0.711,0.313-1.011
		c0.208-0.299,0.482-0.529,0.821-0.688c0.339-0.16,0.704-0.239,1.095-0.239c0.642,0,1.173,0.184,1.594,0.552s0.63,0.856,0.63,1.465
		h-0.928c0-0.338-0.122-0.611-0.367-0.818s-0.558-0.31-0.939-0.31c-0.349,0-0.651,0.098-0.908,0.294
		c-0.256,0.196-0.384,0.45-0.384,0.76c0,0.485,0.325,0.809,0.974,0.97l0.899,0.217c0.662,0.17,1.153,0.435,1.474,0.795
		c0.265,0.299,0.398,0.654,0.398,1.065c0,0.091-0.006,0.184-0.02,0.278c-0.065,0.518-0.302,0.946-0.711,1.287
		c-0.409,0.34-0.939,0.51-1.591,0.51c-0.342,0-0.666-0.059-0.97-0.176s-0.561-0.272-0.77-0.464
		c-0.208-0.192-0.373-0.415-0.494-0.669S37.833,145.856,37.833,145.589z"/>
	<path fill="#FFFFFF" d="M42.927,141.561v-0.869h5.137v0.869h-2.104v6.021h-0.928v-6.021H42.927z"/>
	<path fill="#FFFFFF" d="M48.651,145.682v-0.869h3.481v0.869H48.651z"/>
	<path fill="#FFFFFF" d="M53.383,147.581v-6.89h2.601c0.577,0,1.033,0.161,1.369,0.482c0.335,0.322,0.503,0.755,0.503,1.3
		c0,0.321-0.07,0.611-0.21,0.871c-0.14,0.26-0.363,0.448-0.669,0.564c0.368,0.078,0.667,0.286,0.896,0.623s0.344,0.689,0.344,1.057
		c0,0.361-0.079,0.692-0.237,0.991s-0.392,0.541-0.702,0.725s-0.671,0.276-1.081,0.276H53.383z M54.311,143.553h1.663
		c0.294,0,0.521-0.101,0.68-0.301s0.24-0.449,0.24-0.744c0-0.298-0.091-0.53-0.274-0.697c-0.183-0.167-0.431-0.25-0.744-0.25h-1.565
		V143.553z M54.311,146.712h1.844c0.326,0,0.591-0.112,0.795-0.337s0.306-0.49,0.306-0.796c0-0.299-0.106-0.575-0.318-0.828
		s-0.483-0.378-0.812-0.378h-1.814V146.712z"/>
	<path fill="#FFFFFF" d="M59.282,147.581v-6.89h4.077v0.869H60.21v2.202h2.749v0.869H60.21v2.08h3.252v0.869H59.282z"/>
	<path fill="#FFFFFF" d="M64.552,147.581v-6.89h2.644c0.348,0,0.657,0.061,0.927,0.183c0.27,0.122,0.483,0.287,0.639,0.493
		s0.274,0.436,0.354,0.686s0.12,0.516,0.12,0.796c0,0.263-0.034,0.512-0.103,0.746s-0.173,0.45-0.313,0.648s-0.328,0.361-0.564,0.49
		c-0.236,0.128-0.51,0.205-0.823,0.231l1.842,2.617h-1.128l-1.786-2.583h-0.88v2.583H64.552z M65.479,144.129h1.644
		c0.202,0,0.38-0.036,0.533-0.107s0.273-0.169,0.359-0.293s0.151-0.26,0.193-0.408s0.063-0.305,0.063-0.471
		c0-0.225-0.035-0.431-0.105-0.618c-0.07-0.187-0.192-0.346-0.365-0.476s-0.386-0.195-0.641-0.195h-1.683V144.129z"/>
	<path fill="#FFFFFF" d="M70.358,147.581v-6.89h0.918l3.11,5.151v-5.151h0.928v6.89h-0.889l-3.14-5.19v5.19H70.358z"/>
	<path fill="#FFFFFF" d="M75.984,147.581l2.617-6.89h1.001l2.607,6.89h-0.977l-0.669-1.738h-2.925l-0.669,1.738H75.984z
		 M77.961,144.993h2.28l-1.138-3.062L77.961,144.993z"/>
	<path fill="#FFFFFF" d="M82.879,147.581v-6.89h2.644c0.348,0,0.657,0.061,0.927,0.183c0.27,0.122,0.483,0.287,0.639,0.493
		s0.274,0.436,0.354,0.686s0.12,0.516,0.12,0.796c0,0.263-0.034,0.512-0.103,0.746s-0.173,0.45-0.313,0.648s-0.328,0.361-0.564,0.49
		c-0.236,0.128-0.51,0.205-0.823,0.231l1.842,2.617h-1.128l-1.786-2.583h-0.88v2.583H82.879z M83.807,144.129h1.644
		c0.202,0,0.38-0.036,0.533-0.107s0.273-0.169,0.359-0.293s0.151-0.26,0.193-0.408s0.063-0.305,0.063-0.471
		c0-0.225-0.035-0.431-0.105-0.618c-0.07-0.187-0.192-0.346-0.365-0.476s-0.386-0.195-0.641-0.195h-1.683V144.129z"/>
	<path fill="#FFFFFF" d="M88.686,147.581v-6.89h2.666c0.479,0,0.915,0.089,1.309,0.266s0.72,0.421,0.979,0.732
		s0.459,0.677,0.601,1.099s0.212,0.876,0.212,1.365s-0.071,0.941-0.212,1.357s-0.343,0.779-0.603,1.086s-0.587,0.548-0.979,0.723
		s-0.828,0.261-1.306,0.261H88.686z M89.614,146.712h1.738c0.348,0,0.662-0.065,0.94-0.195s0.506-0.311,0.684-0.542
		s0.313-0.501,0.408-0.811s0.142-0.646,0.142-1.011c0-0.492-0.08-0.93-0.239-1.316s-0.406-0.695-0.74-0.928
		s-0.731-0.349-1.194-0.349h-1.738V146.712z"/>
	<path fill="#FFFFFF" d="M95.289,145.682v-0.869h3.481v0.869H95.289z"/>
	<path fill="#FFFFFF" d="M100.021,147.581v-6.89h2.666c0.479,0,0.915,0.089,1.309,0.266s0.72,0.421,0.979,0.732
		s0.459,0.677,0.601,1.099s0.212,0.876,0.212,1.365s-0.071,0.941-0.212,1.357s-0.343,0.779-0.603,1.086s-0.587,0.548-0.979,0.723
		s-0.828,0.261-1.306,0.261H100.021z M100.948,146.712h1.738c0.348,0,0.662-0.065,0.94-0.195s0.506-0.311,0.684-0.542
		s0.313-0.501,0.408-0.811s0.142-0.646,0.142-1.011c0-0.492-0.08-0.93-0.239-1.316s-0.406-0.695-0.74-0.928
		s-0.731-0.349-1.194-0.349h-1.738V146.712z"/>
	<path fill="#FFFFFF" d="M106.877,147.581v-6.89h4.077v0.869h-3.149v2.202h2.749v0.869h-2.749v2.08h3.252v0.869H106.877z"/>
	<path fill="#FFFFFF" d="M111.893,145.682v-0.869h3.481v0.869H111.893z"/>
	<path fill="#FFFFFF" d="M44.096,157.581l0.842-6.89h0.856l2.425,5.059l2.43-5.059h0.856l0.842,6.89H51.42l-0.63-5.181l-2.151,4.419
		H47.82l-2.166-4.418l-0.63,5.18H44.096z"/>
	<path fill="#FFFFFF" d="M53.443,157.581v-6.89h0.928v6.89H53.443z"/>
	<path fill="#FFFFFF" d="M55.417,154.153c0-0.645,0.154-1.238,0.461-1.78s0.729-0.971,1.265-1.287s1.122-0.474,1.76-0.474
		c0.521,0,1.005,0.103,1.453,0.308s0.828,0.489,1.14,0.851l-0.703,0.583c-0.244-0.264-0.528-0.473-0.852-0.625
		s-0.67-0.228-1.038-0.228c-0.472,0-0.904,0.119-1.296,0.355s-0.701,0.558-0.925,0.963s-0.337,0.85-0.337,1.333
		c0,0.48,0.112,0.923,0.337,1.328s0.533,0.725,0.925,0.958c0.392,0.234,0.824,0.351,1.296,0.351c0.381,0,0.736-0.078,1.064-0.233
		s0.61-0.372,0.845-0.649l0.703,0.593c-0.309,0.368-0.69,0.657-1.143,0.865s-0.942,0.312-1.47,0.312
		c-0.479,0-0.934-0.093-1.365-0.278s-0.802-0.436-1.112-0.752s-0.556-0.691-0.737-1.125S55.417,154.632,55.417,154.153z"/>
	<path fill="#FFFFFF" d="M62.316,157.581v-6.89h0.928v3.042h3.33v-3.042h0.928v6.89h-0.928v-2.998h-3.33v2.998H62.316z"/>
	<path fill="#FFFFFF" d="M68.182,157.581l2.617-6.89H71.8l2.607,6.89h-0.977l-0.669-1.738h-2.925l-0.669,1.738H68.182z
		 M70.159,154.993h2.28l-1.138-3.062L70.159,154.993z"/>
	<path fill="#FFFFFF" d="M75.004,155.213v-4.521h0.928v4.529c0,0.463,0.154,0.84,0.462,1.132c0.308,0.292,0.681,0.438,1.118,0.438
		c0.44,0,0.814-0.146,1.122-0.438c0.308-0.292,0.462-0.669,0.462-1.132v-4.529h0.928v4.521c0,0.365-0.067,0.703-0.202,1.016
		c-0.135,0.312-0.316,0.574-0.545,0.784s-0.495,0.374-0.8,0.491s-0.627,0.176-0.966,0.176s-0.661-0.059-0.964-0.176
		c-0.304-0.117-0.57-0.281-0.798-0.491s-0.409-0.471-0.543-0.784S75.004,155.578,75.004,155.213z"/>
	<path fill="#FFFFFF" d="M81.475,157.581v-6.89h2.666c0.479,0,0.915,0.089,1.309,0.266s0.72,0.421,0.979,0.732
		s0.459,0.677,0.601,1.099s0.212,0.876,0.212,1.365s-0.071,0.941-0.212,1.357s-0.343,0.779-0.603,1.086s-0.587,0.548-0.979,0.723
		s-0.828,0.261-1.306,0.261H81.475z M82.402,156.712h1.738c0.348,0,0.662-0.065,0.94-0.195s0.506-0.311,0.684-0.542
		s0.313-0.501,0.408-0.811s0.142-0.646,0.142-1.011c0-0.492-0.08-0.93-0.239-1.316s-0.406-0.695-0.74-0.928
		s-0.731-0.349-1.194-0.349h-1.738V156.712z"/>
	<path fill="#FFFFFF" d="M87.667,150.691h0.962l1.56,5.326l1.565-5.326h0.962l-2.07,6.89h-0.889L87.667,150.691z"/>
	<path fill="#FFFFFF" d="M93.566,157.581v-6.89h0.928v6.89H93.566z"/>
	<path fill="#FFFFFF" d="M95.994,157.581v-6.89h0.928v6.021h2.808v0.869H95.994z"/>
	<path fill="#FFFFFF" d="M100.56,157.581v-6.89h0.928v6.021h2.808v0.869H100.56z"/>
	<path fill="#FFFFFF" d="M105.126,157.581v-6.89h4.077v0.869h-3.149v2.202h2.749v0.869h-2.749v2.08h3.252v0.869H105.126z"/>
</g>
<g>
	<path fill="#FFFFFF" d="M147.428,80.19h1.119c0.008,0.379,0.181,0.718,0.52,1.017c0.338,0.299,0.758,0.448,1.259,0.448
		c0.495,0,0.884-0.117,1.167-0.352c0.283-0.234,0.449-0.522,0.5-0.862c0.004-0.039,0.006-0.079,0.006-0.118
		c0-0.168-0.029-0.322-0.088-0.463c-0.07-0.172-0.177-0.314-0.319-0.428c-0.142-0.114-0.295-0.208-0.459-0.282
		s-0.346-0.135-0.544-0.182l-1.064-0.268c-1.346-0.34-2.019-1.058-2.019-2.155c0-0.449,0.125-0.854,0.375-1.213
		c0.25-0.359,0.579-0.635,0.985-0.826s0.845-0.287,1.314-0.287c0.771,0,1.408,0.221,1.912,0.662s0.757,1.027,0.757,1.758h-1.113
		c0-0.406-0.147-0.733-0.44-0.981s-0.669-0.372-1.127-0.372c-0.419,0-0.782,0.118-1.089,0.354c-0.308,0.235-0.461,0.54-0.461,0.912
		c0,0.582,0.39,0.97,1.169,1.164l1.079,0.261c0.794,0.205,1.384,0.522,1.769,0.954c0.318,0.358,0.478,0.785,0.478,1.278
		c0,0.109-0.008,0.221-0.023,0.334c-0.078,0.621-0.363,1.136-0.854,1.544s-1.127,0.612-1.909,0.612c-0.411,0-0.799-0.07-1.165-0.211
		s-0.674-0.326-0.924-0.557c-0.25-0.23-0.448-0.498-0.593-0.803C147.5,80.823,147.428,80.511,147.428,80.19z"/>
	<path fill="#FFFFFF" d="M153.996,75.356v-1.043h6.164v1.043h-2.525v7.225h-1.113v-7.225H153.996z"/>
	<path fill="#FFFFFF" d="M161.32,80.302v-1.043h4.178v1.043H161.32z"/>
	<path fill="#FFFFFF" d="M167.455,82.581v-8.268h1.113v7.225h3.369v1.043H167.455z"/>
	<path fill="#FFFFFF" d="M172.846,78.468c0-0.773,0.184-1.485,0.55-2.136c0.367-0.65,0.871-1.165,1.511-1.544
		s1.345-0.568,2.114-0.568c0.771,0,1.477,0.189,2.12,0.568c0.642,0.379,1.147,0.894,1.515,1.544s0.552,1.362,0.552,2.136
		c0,0.574-0.109,1.122-0.327,1.644s-0.511,0.972-0.881,1.351c-0.369,0.379-0.813,0.68-1.333,0.902s-1.068,0.334-1.646,0.334
		s-1.126-0.111-1.644-0.334s-0.96-0.523-1.329-0.902s-0.661-0.829-0.878-1.351C172.954,79.59,172.846,79.042,172.846,78.468z
		 M174.361,76.868c-0.268,0.486-0.402,1.02-0.402,1.6s0.134,1.112,0.402,1.597c0.268,0.484,0.636,0.867,1.105,1.147
		s0.987,0.42,1.554,0.42c0.571,0,1.092-0.14,1.563-0.42s0.841-0.663,1.108-1.147c0.268-0.484,0.402-1.017,0.402-1.597
		s-0.134-1.113-0.402-1.6c-0.268-0.486-0.637-0.872-1.108-1.156s-0.992-0.426-1.563-0.426c-0.567,0-1.085,0.142-1.554,0.426
		S174.628,76.382,174.361,76.868z"/>
	<path fill="#FFFFFF" d="M182.854,79.739v-5.426h1.113v5.435c0,0.556,0.185,1.008,0.555,1.358c0.37,0.351,0.816,0.525,1.341,0.525
		c0.528,0,0.977-0.175,1.347-0.525c0.37-0.35,0.555-0.803,0.555-1.358v-5.435h1.113v5.426c0,0.438-0.081,0.844-0.242,1.219
		s-0.379,0.688-0.654,0.94c-0.274,0.252-0.594,0.448-0.96,0.589s-0.752,0.211-1.159,0.211s-0.793-0.07-1.158-0.211
		s-0.684-0.337-0.958-0.589s-0.491-0.565-0.652-0.94S182.854,80.177,182.854,79.739z"/>
	<path fill="#FFFFFF" d="M191.074,82.581v-8.268h1.113v8.268H191.074z"/>
	<path fill="#FFFFFF" d="M193.934,80.19h1.119c0.008,0.379,0.181,0.718,0.52,1.017c0.338,0.299,0.758,0.448,1.259,0.448
		c0.495,0,0.884-0.117,1.167-0.352c0.283-0.234,0.449-0.522,0.5-0.862c0.004-0.039,0.006-0.079,0.006-0.118
		c0-0.168-0.029-0.322-0.088-0.463c-0.07-0.172-0.177-0.314-0.319-0.428c-0.142-0.114-0.295-0.208-0.459-0.282
		s-0.346-0.135-0.544-0.182l-1.064-0.268c-1.346-0.34-2.019-1.058-2.019-2.155c0-0.449,0.125-0.854,0.375-1.213
		c0.25-0.359,0.579-0.635,0.985-0.826s0.845-0.287,1.314-0.287c0.771,0,1.408,0.221,1.912,0.662s0.757,1.027,0.757,1.758h-1.113
		c0-0.406-0.147-0.733-0.44-0.981s-0.669-0.372-1.127-0.372c-0.419,0-0.782,0.118-1.089,0.354c-0.308,0.235-0.461,0.54-0.461,0.912
		c0,0.582,0.39,0.97,1.169,1.164l1.079,0.261c0.794,0.205,1.384,0.522,1.769,0.954c0.318,0.358,0.478,0.785,0.478,1.278
		c0,0.109-0.008,0.221-0.023,0.334c-0.078,0.621-0.363,1.136-0.854,1.544s-1.127,0.612-1.909,0.612c-0.411,0-0.799-0.07-1.165-0.211
		s-0.674-0.326-0.924-0.557c-0.25-0.23-0.448-0.498-0.593-0.803C194.006,80.823,193.934,80.511,193.934,80.19z"/>
</g>
<g>
	<path fill="#FFFFFF" d="M173.425,298.427h1.119c0.008,0.379,0.181,0.718,0.52,1.017c0.338,0.299,0.758,0.448,1.259,0.448
		c0.495,0,0.884-0.117,1.167-0.352c0.283-0.234,0.449-0.522,0.5-0.862c0.004-0.039,0.006-0.079,0.006-0.118
		c0-0.168-0.029-0.322-0.088-0.463c-0.07-0.172-0.177-0.314-0.319-0.428c-0.142-0.114-0.295-0.208-0.459-0.282
		s-0.346-0.135-0.544-0.182l-1.064-0.268c-1.346-0.34-2.019-1.058-2.019-2.155c0-0.449,0.125-0.854,0.375-1.213
		c0.25-0.359,0.579-0.635,0.985-0.826s0.845-0.287,1.314-0.287c0.771,0,1.408,0.221,1.912,0.662s0.757,1.027,0.757,1.758h-1.113
		c0-0.406-0.147-0.733-0.44-0.981s-0.669-0.372-1.127-0.372c-0.419,0-0.782,0.118-1.089,0.354c-0.308,0.235-0.461,0.54-0.461,0.912
		c0,0.582,0.39,0.97,1.169,1.164l1.079,0.261c0.794,0.205,1.384,0.522,1.769,0.954c0.318,0.358,0.478,0.785,0.478,1.278
		c0,0.109-0.008,0.221-0.023,0.334c-0.078,0.621-0.363,1.136-0.854,1.544s-1.127,0.612-1.909,0.612c-0.411,0-0.799-0.07-1.165-0.211
		s-0.674-0.326-0.924-0.557c-0.25-0.23-0.448-0.498-0.593-0.803C173.497,299.06,173.425,298.747,173.425,298.427z"/>
	<path fill="#FFFFFF" d="M179.993,293.593v-1.043h6.164v1.043h-2.525v7.225h-1.113v-7.225H179.993z"/>
	<path fill="#FFFFFF" d="M187.317,298.538v-1.043h4.178v1.043H187.317z"/>
	<path fill="#FFFFFF" d="M193.452,300.817v-8.268h3.121c0.692,0,1.24,0.193,1.643,0.579c0.403,0.386,0.604,0.906,0.604,1.56
		c0,0.385-0.084,0.734-0.252,1.045c-0.168,0.312-0.436,0.537-0.803,0.677c0.441,0.094,0.8,0.343,1.075,0.747
		s0.413,0.827,0.413,1.269c0,0.434-0.095,0.83-0.284,1.189c-0.189,0.359-0.471,0.649-0.843,0.87s-0.805,0.331-1.296,0.331H193.452z
		 M194.565,295.983h1.996c0.352,0,0.624-0.121,0.816-0.361c0.192-0.241,0.288-0.539,0.288-0.892c0-0.358-0.109-0.637-0.329-0.837
		s-0.517-0.3-0.893-0.3h-1.878V295.983z M194.565,299.774h2.213c0.391,0,0.709-0.135,0.954-0.404s0.367-0.588,0.367-0.955
		c0-0.359-0.127-0.69-0.381-0.993s-0.579-0.454-0.975-0.454h-2.177V299.774z"/>
	<path fill="#FFFFFF" d="M199.991,300.817l3.141-8.268h1.201l3.129,8.268h-1.172l-0.803-2.086h-3.51l-0.803,2.086H199.991z
		 M202.364,297.712h2.736l-1.365-3.674L202.364,297.712z"/>
	<path fill="#FFFFFF" d="M208.722,300.817v-8.268h3.172c0.417,0,0.788,0.073,1.112,0.22c0.324,0.146,0.58,0.344,0.767,0.592
		c0.188,0.248,0.329,0.522,0.424,0.823s0.144,0.619,0.144,0.955c0,0.316-0.041,0.614-0.123,0.895s-0.208,0.54-0.375,0.778
		s-0.394,0.434-0.677,0.587c-0.284,0.154-0.613,0.247-0.988,0.278l2.21,3.14h-1.354l-2.142-3.1h-1.057v3.1H208.722z
		 M209.835,296.675h1.972c0.243,0,0.456-0.043,0.64-0.129c0.184-0.086,0.328-0.203,0.432-0.352c0.104-0.148,0.181-0.312,0.232-0.489
		c0.051-0.178,0.076-0.366,0.076-0.565c0-0.27-0.042-0.517-0.126-0.741c-0.084-0.225-0.229-0.415-0.437-0.571
		s-0.464-0.234-0.769-0.234h-2.019V296.675z"/>
	<path fill="#FFFFFF" d="M216.146,300.817v-8.268h1.102l3.732,6.182v-6.182h1.113v8.268h-1.066l-3.768-6.229v6.229H216.146z"/>
	<path fill="#FFFFFF" d="M223.353,300.817l3.141-8.268h1.201l3.129,8.268h-1.172l-0.803-2.086h-3.51l-0.803,2.086H223.353z
		 M225.726,297.712h2.736l-1.365-3.674L225.726,297.712z"/>
	<path fill="#FFFFFF" d="M232.083,300.817v-8.268h3.121c0.692,0,1.24,0.193,1.643,0.579c0.403,0.386,0.604,0.906,0.604,1.56
		c0,0.385-0.084,0.734-0.252,1.045c-0.168,0.312-0.436,0.537-0.803,0.677c0.441,0.094,0.8,0.343,1.075,0.747
		s0.413,0.827,0.413,1.269c0,0.434-0.095,0.83-0.284,1.189c-0.189,0.359-0.471,0.649-0.843,0.87s-0.805,0.331-1.296,0.331H232.083z
		 M233.196,295.983h1.996c0.352,0,0.624-0.121,0.816-0.361c0.192-0.241,0.288-0.539,0.288-0.892c0-0.358-0.109-0.637-0.329-0.837
		s-0.517-0.3-0.893-0.3h-1.878V295.983z M233.196,299.774h2.213c0.391,0,0.709-0.135,0.954-0.404s0.367-0.588,0.367-0.955
		c0-0.359-0.127-0.69-0.381-0.993s-0.579-0.454-0.975-0.454h-2.177V299.774z"/>
	<path fill="#FFFFFF" d="M239.618,292.55h4.893v1.043h-3.779v2.643h3.299v1.043h-3.299v2.496h3.902v1.043h-5.016V292.55z
		 M242.108,291.507l1.43-1.852h-1.307l-1.166,1.852H242.108z"/>
	<path fill="#FFFFFF" d="M246.093,298.538v-1.043h4.178v1.043H246.093z"/>
	<path fill="#FFFFFF" d="M200.727,310.427h1.119c0.008,0.379,0.181,0.718,0.52,1.017c0.338,0.299,0.758,0.448,1.259,0.448
		c0.495,0,0.884-0.117,1.167-0.352c0.283-0.234,0.449-0.522,0.5-0.862c0.004-0.039,0.006-0.079,0.006-0.118
		c0-0.168-0.029-0.322-0.088-0.463c-0.07-0.172-0.177-0.314-0.319-0.428c-0.142-0.114-0.295-0.208-0.459-0.282
		s-0.346-0.135-0.544-0.182l-1.064-0.268c-1.346-0.34-2.019-1.058-2.019-2.155c0-0.449,0.125-0.854,0.375-1.213
		c0.25-0.359,0.579-0.635,0.985-0.826s0.845-0.287,1.314-0.287c0.771,0,1.408,0.221,1.912,0.662s0.757,1.027,0.757,1.758h-1.113
		c0-0.406-0.147-0.733-0.44-0.981s-0.669-0.372-1.127-0.372c-0.419,0-0.782,0.118-1.089,0.354c-0.308,0.235-0.461,0.54-0.461,0.912
		c0,0.582,0.39,0.97,1.169,1.164l1.079,0.261c0.794,0.205,1.384,0.522,1.769,0.954c0.318,0.358,0.478,0.785,0.478,1.278
		c0,0.109-0.008,0.221-0.023,0.334c-0.078,0.621-0.363,1.136-0.854,1.544s-1.127,0.612-1.909,0.612c-0.411,0-0.799-0.07-1.165-0.211
		s-0.674-0.326-0.924-0.557c-0.25-0.23-0.448-0.498-0.593-0.803C200.799,311.06,200.727,310.747,200.727,310.427z"/>
	<path fill="#FFFFFF" d="M208.021,309.976v-5.426h1.113v5.435c0,0.556,0.185,1.008,0.555,1.358c0.37,0.351,0.816,0.525,1.341,0.525
		c0.528,0,0.977-0.175,1.347-0.525c0.37-0.35,0.555-0.803,0.555-1.358v-5.435h1.113v5.426c0,0.438-0.081,0.844-0.242,1.219
		s-0.379,0.688-0.654,0.94c-0.274,0.252-0.594,0.448-0.96,0.589s-0.752,0.211-1.159,0.211s-0.793-0.07-1.158-0.211
		s-0.684-0.337-0.958-0.589s-0.491-0.565-0.652-0.94S208.021,310.413,208.021,309.976z"/>
	<path fill="#FFFFFF" d="M216.242,312.817v-8.268h3.199c0.574,0,1.098,0.106,1.57,0.319s0.864,0.506,1.175,0.879
		s0.551,0.812,0.721,1.318s0.255,1.052,0.255,1.638s-0.085,1.129-0.255,1.629s-0.411,0.935-0.724,1.304s-0.704,0.658-1.175,0.867
		s-0.993,0.313-1.567,0.313H216.242z M217.355,311.774h2.086c0.418,0,0.794-0.078,1.128-0.234s0.607-0.373,0.82-0.65
		s0.376-0.602,0.489-0.973s0.17-0.775,0.17-1.213c0-0.59-0.096-1.116-0.287-1.579s-0.487-0.834-0.888-1.113
		s-0.878-0.419-1.433-0.419h-2.086V311.774z"/>
</g>
<g>
	<path fill="#FFFFFF" d="M79.958,500.06h1.119c0.008,0.379,0.181,0.718,0.52,1.017c0.338,0.299,0.758,0.448,1.259,0.448
		c0.495,0,0.884-0.117,1.167-0.352s0.449-0.522,0.5-0.862c0.004-0.039,0.006-0.079,0.006-0.118c0-0.168-0.029-0.322-0.088-0.463
		c-0.07-0.172-0.177-0.314-0.319-0.428c-0.142-0.113-0.295-0.207-0.459-0.281s-0.346-0.135-0.544-0.182l-1.064-0.269
		c-1.346-0.34-2.019-1.058-2.019-2.155c0-0.449,0.125-0.854,0.375-1.213c0.25-0.359,0.579-0.635,0.985-0.826
		s0.845-0.287,1.314-0.287c0.771,0,1.408,0.221,1.912,0.662s0.757,1.027,0.757,1.758h-1.113c0-0.406-0.147-0.733-0.44-0.981
		s-0.669-0.372-1.127-0.372c-0.419,0-0.782,0.117-1.089,0.354c-0.308,0.235-0.461,0.539-0.461,0.912c0,0.582,0.39,0.969,1.169,1.164
		l1.079,0.26c0.794,0.205,1.384,0.523,1.769,0.955c0.318,0.357,0.478,0.784,0.478,1.277c0,0.109-0.008,0.221-0.023,0.334
		c-0.078,0.621-0.363,1.136-0.854,1.544s-1.127,0.612-1.909,0.612c-0.411,0-0.799-0.07-1.165-0.211s-0.674-0.326-0.924-0.557
		c-0.25-0.23-0.448-0.498-0.593-0.803C80.03,500.692,79.958,500.38,79.958,500.06z"/>
	<path fill="#FFFFFF" d="M86.526,495.226v-1.043h6.164v1.043h-2.525v7.225h-1.113v-7.225H86.526z"/>
	<path fill="#FFFFFF" d="M94.155,502.45v-8.268h4.893v1.043h-3.779v2.643h3.299v1.043h-3.299v2.496h3.902v1.043H94.155z"/>
	<path fill="#FFFFFF" d="M100.629,500.171v-1.043h4.178v1.043H100.629z"/>
	<path fill="#FFFFFF" d="M106.295,502.45l1.011-8.268h1.027l2.91,6.07l2.916-6.07h1.027l1.011,8.268h-1.113l-0.756-6.218
		l-2.582,5.304h-0.983l-2.6-5.301l-0.755,6.215H106.295z"/>
	<path fill="#FFFFFF" d="M116.971,502.45l3.141-8.268h1.201l3.129,8.268h-1.172l-0.803-2.086h-3.51l-0.803,2.086H116.971z
		 M119.344,499.345h2.736l-1.365-3.674L119.344,499.345z"/>
	<path fill="#FFFFFF" d="M125.702,502.45v-8.268h3.172c0.417,0,0.788,0.073,1.112,0.22c0.324,0.146,0.58,0.344,0.767,0.592
		c0.188,0.248,0.329,0.522,0.424,0.823s0.144,0.619,0.144,0.955c0,0.316-0.041,0.613-0.123,0.895s-0.208,0.54-0.375,0.777
		c-0.168,0.238-0.394,0.434-0.677,0.588c-0.284,0.154-0.613,0.246-0.988,0.277l2.21,3.141h-1.354l-2.142-3.1h-1.057v3.1H125.702z
		 M126.815,498.308h1.972c0.243,0,0.456-0.043,0.64-0.129c0.184-0.086,0.328-0.203,0.432-0.352c0.104-0.148,0.181-0.312,0.232-0.489
		c0.051-0.178,0.076-0.366,0.076-0.565c0-0.27-0.042-0.517-0.126-0.741c-0.084-0.225-0.229-0.415-0.437-0.571
		s-0.464-0.234-0.769-0.234h-2.019V498.308z"/>
	<path fill="#FFFFFF" d="M133.125,502.45v-8.268h1.113v8.268H133.125z"/>
	<path fill="#FFFFFF" d="M136.495,502.45v-8.268h4.893v1.043h-3.779v2.643h3.299v1.043h-3.299v2.496h3.902v1.043H136.495z"/>
	<path fill="#FFFFFF" d="M142.969,500.171v-1.043h4.178v1.043H142.969z"/>
	<path fill="#FFFFFF" d="M81.583,514.45l1.011-8.268h1.027l2.91,6.07l2.916-6.07h1.027l1.011,8.268h-1.113l-0.756-6.218
		l-2.582,5.304h-0.983l-2.6-5.301l-0.755,6.215H81.583z"/>
	<path fill="#FFFFFF" d="M92.259,514.45l3.141-8.268h1.201l3.129,8.268h-1.172l-0.803-2.086h-3.51l-0.803,2.086H92.259z
		 M94.632,511.345h2.736l-1.365-3.674L94.632,511.345z"/>
	<path fill="#FFFFFF" d="M100.99,514.45v-8.268h3.199c0.574,0,1.098,0.106,1.57,0.319s0.864,0.506,1.175,0.879
		s0.551,0.812,0.721,1.318s0.255,1.052,0.255,1.638s-0.085,1.129-0.255,1.629s-0.411,0.935-0.724,1.304s-0.704,0.658-1.175,0.867
		s-0.993,0.313-1.567,0.313H100.99z M102.103,513.407h2.086c0.418,0,0.794-0.078,1.128-0.234s0.607-0.373,0.82-0.65
		s0.376-0.602,0.489-0.973s0.17-0.775,0.17-1.213c0-0.59-0.096-1.116-0.287-1.579s-0.487-0.834-0.888-1.113
		s-0.878-0.419-1.433-0.419h-2.086V513.407z"/>
	<path fill="#FFFFFF" d="M109.673,514.45v-8.268h4.893v1.043h-3.779v2.643h3.299v1.043h-3.299v2.496h3.902v1.043H109.673z"/>
	<path fill="#FFFFFF" d="M116.453,514.45v-8.268h1.113v7.225h3.369v1.043H116.453z"/>
	<path fill="#FFFFFF" d="M122.388,514.45v-8.268h4.893v1.043h-3.779v2.643h3.299v1.043h-3.299v2.496h3.902v1.043H122.388z"/>
	<path fill="#FFFFFF" d="M129.167,514.45v-8.268h1.113v8.268H129.167z"/>
	<path fill="#FFFFFF" d="M132.537,514.45v-8.268h1.102l3.732,6.182v-6.182h1.113v8.268h-1.066l-3.768-6.229v6.229H132.537z"/>
	<path fill="#FFFFFF" d="M140.74,514.45v-8.268h4.893v1.043h-3.779v2.643h3.299v1.043h-3.299v2.496h3.902v1.043H140.74z"/>
</g>
<g>
	<path fill="#7777E3" d="M30.679,577.394h1.119c0.008,0.379,0.181,0.718,0.52,1.017c0.338,0.299,0.758,0.448,1.259,0.448
		c0.495,0,0.884-0.117,1.167-0.352s0.449-0.522,0.5-0.862c0.004-0.039,0.006-0.079,0.006-0.118c0-0.168-0.029-0.322-0.088-0.463
		c-0.07-0.172-0.177-0.314-0.319-0.428c-0.142-0.113-0.295-0.207-0.459-0.281s-0.346-0.135-0.544-0.182l-1.064-0.269
		c-1.346-0.34-2.019-1.058-2.019-2.155c0-0.449,0.125-0.854,0.375-1.213c0.25-0.359,0.579-0.635,0.985-0.826
		s0.845-0.287,1.314-0.287c0.771,0,1.408,0.221,1.912,0.662s0.757,1.027,0.757,1.758h-1.113c0-0.406-0.147-0.733-0.44-0.981
		s-0.669-0.372-1.127-0.372c-0.419,0-0.782,0.117-1.089,0.354c-0.308,0.235-0.461,0.539-0.461,0.912c0,0.582,0.39,0.969,1.169,1.164
		l1.079,0.26c0.794,0.205,1.384,0.523,1.769,0.955c0.318,0.357,0.478,0.784,0.478,1.277c0,0.109-0.008,0.221-0.023,0.334
		c-0.078,0.621-0.363,1.136-0.854,1.544s-1.127,0.612-1.909,0.612c-0.411,0-0.799-0.07-1.165-0.211s-0.674-0.326-0.924-0.557
		c-0.25-0.23-0.448-0.498-0.593-0.803C30.751,578.026,30.679,577.714,30.679,577.394z"/>
	<path fill="#7777E3" d="M37.247,572.56v-1.043h6.164v1.043h-2.525v7.225h-1.113v-7.225H37.247z"/>
	<path fill="#7777E3" d="M44.876,579.784v-8.268h4.893v1.043h-3.779v2.643h3.299v1.043h-3.299v2.496h3.902v1.043H44.876z"/>
	<path fill="#7777E3" d="M51.351,577.505v-1.043h4.178v1.043H51.351z"/>
	<path fill="#7777E3" d="M11.135,591.784l1.011-8.268h1.027l2.91,6.07l2.916-6.07h1.027l1.011,8.268h-1.113l-0.756-6.218
		l-2.582,5.304h-0.983l-2.6-5.301l-0.755,6.215H11.135z"/>
	<path fill="#7777E3" d="M21.811,591.784l3.141-8.268h1.201l3.129,8.268h-1.172l-0.803-2.086h-3.51l-0.803,2.086H21.811z
		 M24.184,588.679h2.736l-1.365-3.674L24.184,588.679z"/>
	<path fill="#7777E3" d="M30.541,591.784v-8.268h3.199c0.574,0,1.098,0.106,1.57,0.319s0.864,0.506,1.175,0.879
		s0.551,0.812,0.721,1.318s0.255,1.052,0.255,1.638s-0.085,1.129-0.255,1.629s-0.411,0.935-0.724,1.304s-0.704,0.658-1.175,0.867
		s-0.993,0.313-1.567,0.313H30.541z M31.654,590.741h2.086c0.418,0,0.794-0.078,1.128-0.234s0.607-0.373,0.82-0.65
		s0.376-0.602,0.489-0.973s0.17-0.775,0.17-1.213c0-0.59-0.096-1.116-0.287-1.579s-0.487-0.834-0.888-1.113
		s-0.878-0.419-1.433-0.419h-2.086V590.741z"/>
	<path fill="#7777E3" d="M39.225,591.784v-8.268h4.893v1.043h-3.779v2.643h3.299v1.043h-3.299v2.496h3.902v1.043H39.225z"/>
	<path fill="#7777E3" d="M46.004,591.784v-8.268h1.113v7.225h3.369v1.043H46.004z"/>
	<path fill="#7777E3" d="M51.939,591.784v-8.268h4.893v1.043h-3.779v2.643h3.299v1.043h-3.299v2.496h3.902v1.043H51.939z"/>
	<path fill="#7777E3" d="M58.719,591.784v-8.268h1.113v8.268H58.719z"/>
	<path fill="#7777E3" d="M62.088,591.784v-8.268h1.102l3.732,6.182v-6.182h1.113v8.268h-1.066l-3.768-6.229v6.229H62.088z"/>
	<path fill="#7777E3" d="M70.291,591.784v-8.268h4.893v1.043h-3.779v2.643h3.299v1.043h-3.299v2.496h3.902v1.043H70.291z"/>
</g>
<g>
	<rect x="58.557" y="530.663" fill-rule="evenodd" clip-rule="evenodd" fill="#FFFFFF" width="1.5" height="2.327"/>
	<rect x="58.557" y="534.837" fill-rule="evenodd" clip-rule="evenodd" fill="#FFFFFF" width="1.5" height="2.326"/>
	<rect x="58.557" y="538.996" fill-rule="evenodd" clip-rule="evenodd" fill="#FFFFFF" width="1.5" height="2.327"/>
	<rect x="58.557" y="518.128" fill-rule="evenodd" clip-rule="evenodd" fill="#FFFFFF" width="1.5" height="2.327"/>
	<rect x="58.557" y="522.301" fill-rule="evenodd" clip-rule="evenodd" fill="#FFFFFF" width="1.5" height="2.327"/>
	<rect x="58.557" y="526.461" fill-rule="evenodd" clip-rule="evenodd" fill="#FFFFFF" width="1.5" height="2.326"/>
</g>
<g>
	<rect x="58.557" y="553.529" fill-rule="evenodd" clip-rule="evenodd" fill="#7777E3" width="1.5" height="2.327"/>
	<rect x="58.557" y="557.703" fill-rule="evenodd" clip-rule="evenodd" fill="#7777E3" width="1.5" height="2.326"/>
	<rect x="58.557" y="561.862" fill-rule="evenodd" clip-rule="evenodd" fill="#7777E3" width="1.5" height="2.327"/>
	<rect x="58.557" y="540.994" fill-rule="evenodd" clip-rule="evenodd" fill="#7777E3" width="1.5" height="2.327"/>
	<rect x="58.557" y="545.167" fill-rule="evenodd" clip-rule="evenodd" fill="#7777E3" width="1.5" height="2.327"/>
	<rect x="58.557" y="549.327" fill-rule="evenodd" clip-rule="evenodd" fill="#7777E3" width="1.5" height="2.326"/>
</g>
</svg>